<?xml version="1.0" encoding="UTF-8"?>
<svg id="b" data-name="Layer 2" xmlns="http://www.w3.org/2000/svg" viewBox="0 0 162.75 51.89">
  <g id="c" data-name="Layer 1">
    <g>
      <path d="m89.85,6.09h-16.95c.22-1.52-.22-2.61-.87-3.7-1.09-1.09-2.61-1.74-4.56-1.74H1.87c-1.09-.22-1.52.44-1.09,1.52l2.17,3.48c.22.22.44.43,1.09.43h1.3l.22.87,2.17,3.26c.22.44.65.65,1.3.44h1.09l1.74,3.48c0,.22.65.44,1.96.87l28.46,7.83,1.96,3.48c.22.65.87,1.3,1.74,1.52l26.94,6.96,8.47-7.18,8.47,7.18,26.94-6.96c.87-.22,1.52-.87,1.74-1.52l1.96-3.48,28.46-7.83c1.3-.43,1.96-.65,1.96-.87l1.74-3.48h1.09c.65.22,1.09,0,1.3-.44l2.17-3.26.22-.87h1.3c.65,0,.87-.22,1.09-.43l2.17-3.48c.43-1.09,0-1.74-1.09-1.52h-65.6c-2.17,0-3.69.65-4.56,1.74-.65,1.09-1.09,2.17-.87,3.7h0ZM13.16,14.79l36.71-3.48m-23.46,7.18l21.94-5m-12.82,7.61l14.12-5.87m-7.39,7.83l9.34-5.87m-7.17,9.78l9.99-7.61m-4.13,9.57l6.95-7.61m-1.52,8.91l4.78-6.96m.65,8.48l3.04-6.96m2.82,8.48l1.3-7.17m4.56,8.26v-6.96m8.47.22v-12.61m68.21-.22l-36.93-3.48m23.89,7.18l-22.37-5m13.03,7.61l-14.34-6.09m7.6,8.05l-9.34-5.87m7.17,9.78l-9.99-7.61m4.13,9.57l-7.17-7.83m1.74,9.13l-5-6.96m-.44,8.48l-3.04-6.96m-2.82,8.48l-1.3-7.17m-4.56,8.7v-7.39m63.87-16.74l-41.06-1.96m-59.52,9.35l2.17-2.83m.43,5l3.48-5.22m-.43,7.39l3.69-7.18m-.22,8.7l3.69-8.7m.43,10.65l3.69-10.44m1.3,11.74l2.39-11.96m2.39,12.83l1.09-12.83m32.37,2.83l-2.17-2.83m-.43,5l-3.26-5m.22,7.18l-3.69-7.18m.22,8.7l-3.91-8.7m-.22,10.65l-3.69-10.44m-1.3,11.74l-2.39-11.96m-2.39,12.83l-1.09-12.83m73.21-9.13h-68.86M9.04,10.66l40.84-1.96M4.04,6.09h68.86" fill="none" stroke="#d0d1d3" stroke-linejoin="round" stroke-width="1.23"/>
      <path d="m112.65,15.01V6.09h-62.78v8.91h62.78Z" fill-rule="evenodd" stroke="#d0d1d3" stroke-linejoin="round" stroke-width="1.23"/>
      <path d="m39.88.44c3.48,8.26,8.91,14.79,16.29,19.79,7.6,5.22,16.07,7.83,25.2,7.83s17.38-2.61,24.98-7.61c3.69-2.39,6.73-5.44,9.56-8.7,2.83-3.26,5-6.96,6.74-11.09" fill="none" stroke="#d0d1d3" stroke-linejoin="round" stroke-width="1.23"/>
      <path d="m27.72,40.15l5,11.52h-1.74l-1.74-4.35h-4.13l-1.74,4.35h-1.09l5-11.52h.43,0Zm1.3,6.31l-1.96-4.13-1.74,4.13h3.69Zm10.21,4.35c-.65.65-1.74,1.09-2.82,1.09l-1.52-.22-1.09-.87.22-1.3h.22c.65,1.09,1.52,1.74,2.61,1.74.65,0,1.09-.22,1.52-.87.43-.43.65-1.09.65-1.74s-.22-1.09-.65-1.52l-1.74-.87c-.87-.22-1.52-.65-1.74-.87-.65-.65-.87-1.3-.87-1.96,0-1.09.43-1.74,1.09-2.39s1.3-.87,2.39-.87,1.74.22,2.39.87l-.43,1.3c-.43-1.09-1.09-1.52-2.17-1.52-.65,0-1.09.22-1.3.65-.43.22-.65.65-.65,1.3s.22,1.3.65,1.74l1.96.65c.65.43,1.3.87,1.74,1.09.43.44.65,1.09.65,1.96,0,.98-.39,1.92-1.09,2.61h0Zm10.64-10l.22.65-3.48-.22v10.44h-1.52v-10.44l-3.69.22.22-.65-.22-.44h8.69l-.22.44h0Zm3.47,9.13c.87.87,1.96,1.3,3.04,1.3,1.52,0,2.82-.65,3.69-1.96.65-1.09,1.09-2.17.87-3.26,0-1.52-.22-2.83-.87-3.7-.87-1.09-1.96-1.74-3.48-1.74s-2.61.65-3.48,1.74c-.71,1.18-1.09,2.53-1.09,3.91,0,1.52.44,2.83,1.3,3.7Zm-3.04-3.91c0-1.74.65-3.26,1.74-4.35,1.09-1.09,2.61-1.52,4.34-1.52s3.26.43,4.34,1.3c1.3,1.09,1.96,2.39,1.96,4.35s-.65,3.26-1.74,4.35-2.61,1.74-4.56,1.74c-1.74,0-3.26-.43-4.34-1.52-1.08-1.09-1.74-2.61-1.74-4.35Zm24.33,5.65h-.65l-7.82-8.91h-.22v8.91h-.87v-11.31h.65l7.82,8.48v-8.48h1.09v11.31Zm8.69-11.31c1.96,3.7,3.48,6.52,4.78,8.7l4.78-8.7h.22l1.3,11.31h-1.52l-.87-8.48c-1.96,3.7-3.48,6.52-4.13,8.26h-.22l-1.09-1.74-3.26-6.52-.65,8.48h-1.3l1.74-11.31h.22Zm21.94,11.31h-.87l-1.74-4.35h-4.34l-1.52,4.35h-1.3l5.21-11.52h.44l4.78,11.52h-.65,0Zm-3.04-5.22l-1.74-4.13-1.74,4.13h3.48Zm6.95-5.44v4.57l2.17-.22c.65-.22,1.09-.44,1.52-.65l.65-1.52c0-1.3-.65-1.96-1.96-2.17h-2.39s0,0,0,0Zm2.17-.65c2.39,0,3.48.87,3.48,2.61,0,.87-.43,1.52-1.09,2.17-.65.43-1.3.65-2.17.87l4.34,5.65h-1.74l-4.34-5.44h-.65v5.44h-1.3v-11.31h3.48s0,0,0,0Zm8.25,11.31v-10.44l-3.48.22v-1.09h8.25v1.09l-3.26-.22v10.44h-1.52Zm8.26-11.31v11.31h-1.52v-11.31h1.52Zm12.82,11.31h-.65l-7.82-8.91h-.22v8.91h-.87v-11.31h.43l8.04,8.48v-8.48h1.09v11.31h0,0Z" fill-rule="evenodd" stroke-width="0"/>
      <path d="m54.16,7.77l2.51,5.78h-.87l-.87-2.18h-2.07l-.87,2.18h-.54l2.51-5.78h.22Zm.65,3.16l-.98-2.07-.87,2.07h1.85Zm5.12,2.18c-.33.33-.87.55-1.42.55l-.76-.11-.55-.44.11-.65h.11c.33.55.76.87,1.31.87.33,0,.55-.11.76-.44.22-.22.33-.55.33-.87s-.11-.55-.33-.76l-.87-.44c-.44-.11-.76-.33-.87-.44-.33-.33-.44-.65-.44-.98,0-.55.22-.87.54-1.2.33-.33.65-.44,1.2-.44s.87.11,1.2.44l-.22.66c-.22-.55-.55-.76-1.09-.76-.33,0-.55.11-.65.33-.22.11-.33.33-.33.65s.11.66.33.87l.98.33c.33.22.65.44.87.55.22.22.33.55.33.98,0,.55-.22.98-.55,1.31h0Zm5.34-5.02l.11.33-1.74-.11v5.24h-.76v-5.24l-1.85.11.11-.33-.11-.22h4.36l-.11.22h0Zm1.74,4.58c.44.44.98.65,1.53.65.76,0,1.42-.33,1.85-.98.33-.55.55-1.09.44-1.64,0-.76-.11-1.42-.44-1.85-.44-.55-.98-.87-1.74-.87s-1.31.33-1.74.87c-.33.55-.54,1.2-.54,1.96s.22,1.42.65,1.86h0Zm-1.53-1.96c0-.87.33-1.64.87-2.18.54-.55,1.31-.76,2.18-.76s1.63.22,2.18.65c.65.55.98,1.2.98,2.18s-.33,1.64-.87,2.18c-.55.55-1.31.87-2.29.87-.87,0-1.64-.22-2.18-.76-.54-.55-.87-1.31-.87-2.18h0Zm12.21,2.84h-.33l-3.92-4.47h-.11v4.47h-.44v-5.67h.33l3.92,4.26v-4.26h.54v5.67h0Zm4.36-5.67c.98,1.86,1.74,3.27,2.4,4.36l2.4-4.36h.11l.65,5.67h-.76l-.44-4.26c-.98,1.85-1.74,3.27-2.07,4.15h-.11l-.55-.87-1.63-3.27-.33,4.26h-.65l.87-5.67h.11Zm11.01,5.67h-.43l-.87-2.18h-2.18l-.76,2.18h-.65l2.62-5.78h.22l2.4,5.78h-.33,0Zm-1.53-2.62l-.87-2.07-.87,2.07h1.74Zm3.49-2.73v2.29l1.09-.11c.33-.11.54-.22.76-.33l.33-.76c0-.65-.33-.98-.98-1.09h-1.2Zm1.09-.33c1.2,0,1.74.44,1.74,1.31,0,.44-.22.76-.55,1.09-.33.22-.65.33-1.09.44l2.18,2.84h-.87l-2.18-2.73h-.33v2.73h-.65v-5.67h1.74s0,0,0,0Zm4.14,5.67v-5.24l-1.74.11v-.55h4.14v.55l-1.63-.11v5.24h-.76Zm4.14-5.67v5.67h-.76v-5.67h.76Zm6.43,5.67h-.33l-3.92-4.47h-.11v4.47h-.44v-5.67h.22l4.03,4.26v-4.26h.55v5.67Z" fill="#fff" fill-rule="evenodd" stroke-width="0"/>
    </g>
  </g>
</svg>