<?xml version="1.0" encoding="UTF-8"?>
<svg id="b" data-name="Layer 2" xmlns="http://www.w3.org/2000/svg" viewBox="0 0 300 100">
  <g id="c" data-name="Layer 1">
    <g>
      <path d="m163.76,15.24h-29.48c.38-2.65-.38-4.54-1.51-6.43-1.89-1.89-4.54-3.03-7.93-3.03H10.72c-1.89-.38-2.64.76-1.89,2.65l3.78,6.05c.38.38.76.76,1.89.76h2.27l.38,1.51,3.78,5.67c.38.76,1.13,1.14,2.27.76h1.89l3.02,6.05c0,.38,1.13.76,3.4,1.51l49.5,13.62,3.4,6.05c.38,1.13,1.51,2.27,3.02,2.65l46.86,12.1,14.74-12.48,14.74,12.48,46.86-12.1c1.51-.38,2.64-1.51,3.02-2.65l3.4-6.05,49.5-13.62c2.27-.76,3.4-1.13,3.4-1.51l3.02-6.05h1.89c1.13.38,1.89,0,2.27-.76l3.78-5.67.38-1.51h2.27c1.13,0,1.51-.38,1.89-.76l3.78-6.05c.76-1.89,0-3.03-1.89-2.65h-114.12c-3.78,0-6.42,1.13-7.93,3.03-1.13,1.89-1.89,3.78-1.51,6.43h0ZM30.37,30.37l63.86-6.05m-40.81,12.48l38.16-8.7m-22.29,13.24l24.56-10.21m-12.85,13.62l16.25-10.21m-12.47,17.02l17.38-13.24m-7.18,16.64l12.09-13.24m-2.65,15.51l8.31-12.1m1.13,14.75l5.29-12.1m4.91,14.75l2.27-12.48m7.93,14.37v-12.11m14.74.38v-21.94m118.66-.38l-64.24-6.05m41.57,12.48l-38.92-8.7m22.67,13.24l-24.94-10.59m13.22,14l-16.25-10.21m12.47,17.02l-17.38-13.24m7.18,16.64l-12.47-13.61m3.02,15.88l-8.69-12.1m-.76,14.75l-5.29-12.1m-4.91,14.75l-2.27-12.48m-7.93,15.13v-12.86m111.1-29.12l-71.42-3.4m-103.54,16.26l3.78-4.92m.75,8.7l6.05-9.08m-.75,12.86l6.42-12.48m-.38,15.13l6.42-15.13m.75,18.53l6.42-18.16m2.27,20.42l4.16-20.8m4.16,22.32l1.89-22.32m56.31,4.92l-3.78-4.92m-.76,8.7l-5.67-8.7m.38,12.48l-6.43-12.48m.38,15.13l-6.8-15.13m-.38,18.53l-6.42-18.16m-2.27,20.42l-4.16-20.8m-4.16,22.32l-1.89-22.32m127.34-15.89h-119.79M23.19,23.18l71.04-3.4M14.5,15.24h119.79" fill="none" stroke="#d0d1d3" stroke-linejoin="round" stroke-width="2.14"/>
      <path d="m203.44,30.75v-15.51h-109.21v15.51h109.21Z" fill-rule="evenodd" stroke="#d0d1d3" stroke-linejoin="round" stroke-width="2.14"/>
      <path d="m76.85,5.41c6.05,14.37,15.49,25.72,28.34,34.42,13.23,9.08,27.96,13.62,43.83,13.62s30.23-4.54,43.46-13.24c6.42-4.16,11.71-9.46,16.62-15.13,4.91-5.67,8.69-12.1,11.72-19.29" fill="none" stroke="#d0d1d3" stroke-linejoin="round" stroke-width="2.14"/>
      <path d="m55.69,74.48l8.69,20.05h-3.02l-3.02-7.56h-7.18l-3.02,7.56h-1.89l8.69-20.05h.75,0Zm2.27,10.97l-3.4-7.19-3.02,7.19h6.42Zm17.76,7.56c-1.13,1.13-3.02,1.89-4.91,1.89l-2.64-.38-1.89-1.51.38-2.27h.38c1.13,1.89,2.64,3.03,4.53,3.03,1.13,0,1.89-.38,2.64-1.51.76-.76,1.13-1.89,1.13-3.03s-.38-1.89-1.13-2.65l-3.02-1.51c-1.51-.38-2.64-1.13-3.02-1.51-1.13-1.13-1.51-2.27-1.51-3.4,0-1.89.75-3.03,1.89-4.16s2.27-1.51,4.16-1.51,3.02.38,4.16,1.51l-.76,2.27c-.76-1.89-1.89-2.64-3.78-2.64-1.13,0-1.89.38-2.27,1.13-.76.38-1.13,1.13-1.13,2.27s.38,2.27,1.13,3.03l3.4,1.13c1.13.76,2.27,1.51,3.02,1.89.76.76,1.13,1.89,1.13,3.4.01,1.71-.67,3.34-1.89,4.53h0Zm18.52-17.4l.38,1.13-6.05-.38v18.16h-2.64v-18.16l-6.42.38.38-1.13-.38-.76h15.12l-.38.76h0Zm6.04,15.89c1.51,1.51,3.4,2.27,5.29,2.27,2.64,0,4.91-1.13,6.42-3.4,1.13-1.89,1.89-3.78,1.51-5.67,0-2.65-.38-4.92-1.51-6.43-1.51-1.89-3.4-3.03-6.05-3.03s-4.54,1.13-6.05,3.03c-1.24,2.05-1.9,4.41-1.89,6.81,0,2.65.76,4.92,2.27,6.43Zm-5.29-6.81c0-3.03,1.13-5.67,3.02-7.57,1.89-1.89,4.54-2.64,7.56-2.64s5.67.76,7.56,2.27c2.27,1.89,3.4,4.16,3.4,7.56s-1.13,5.67-3.02,7.56-4.53,3.03-7.93,3.03c-3.02,0-5.67-.76-7.56-2.64-1.89-1.89-3.02-4.54-3.02-7.57Zm42.32,9.83h-1.13l-13.6-15.51h-.38v15.51h-1.51v-19.67h1.13l13.6,14.75v-14.75h1.89v19.67Zm15.11-19.67c3.4,6.43,6.05,11.35,8.32,15.13l8.31-15.13h.38l2.27,19.67h-2.64l-1.51-14.75c-3.4,6.43-6.05,11.35-7.18,14.37h-.38l-1.89-3.03-5.67-11.35-1.13,14.75h-2.27l3.02-19.67h.38Zm38.17,19.67h-1.51l-3.03-7.56h-7.56l-2.64,7.56h-2.27l9.07-20.05h.76l8.31,20.05h-1.13,0Zm-5.29-9.08l-3.02-7.19-3.03,7.19h6.05Zm12.1-9.46v7.94l3.78-.38c1.13-.38,1.89-.76,2.64-1.13l1.13-2.65c0-2.27-1.13-3.4-3.4-3.78h-4.16s0,0,0,0Zm3.78-1.13c4.16,0,6.05,1.51,6.05,4.54,0,1.51-.76,2.65-1.89,3.78-1.13.76-2.27,1.13-3.78,1.51l7.55,9.83h-3.02l-7.56-9.46h-1.13v9.46h-2.27v-19.67h6.05s0,0,0,0Zm14.36,19.67v-18.16l-6.05.38v-1.89h14.36v1.89l-5.67-.38v18.16h-2.64Zm14.36-19.67v19.67h-2.64v-19.67h2.64Zm22.29,19.67h-1.13l-13.6-15.51h-.38v15.51h-1.51v-19.67h.76l13.98,14.75v-14.75h1.89v19.67h0,0Z" fill-rule="evenodd" stroke-width="0"/>
      <path d="m101.68,18.17l4.36,10.06h-1.52l-1.52-3.8h-3.6l-1.52,3.8h-.95l4.36-10.06h.38Zm1.14,5.5l-1.71-3.6-1.52,3.6h3.22Zm8.91,3.8c-.57.57-1.52.95-2.47.95l-1.33-.19-.95-.76.19-1.14h.19c.57.95,1.33,1.52,2.27,1.52.57,0,.95-.19,1.33-.76.38-.38.57-.95.57-1.52s-.19-.95-.57-1.33l-1.52-.76c-.76-.19-1.33-.57-1.52-.76-.57-.57-.76-1.14-.76-1.71,0-.95.38-1.52.95-2.09.57-.57,1.14-.76,2.09-.76s1.52.19,2.09.76l-.38,1.14c-.38-.95-.95-1.33-1.9-1.33-.57,0-.95.19-1.14.57-.38.19-.57.57-.57,1.14s.19,1.14.57,1.52l1.71.57c.57.38,1.14.76,1.52.95.38.38.57.95.57,1.71,0,.95-.38,1.71-.95,2.28h0Zm9.29-8.73l.19.57-3.03-.19v9.11h-1.33v-9.11l-3.22.19.19-.57-.19-.38h7.58l-.19.38h0Zm3.03,7.97c.76.76,1.71,1.14,2.65,1.14,1.33,0,2.47-.57,3.22-1.71.57-.95.95-1.9.76-2.85,0-1.33-.19-2.47-.76-3.23-.76-.95-1.71-1.52-3.03-1.52s-2.28.57-3.03,1.52c-.57.95-.95,2.09-.95,3.42s.38,2.47,1.14,3.23h0Zm-2.65-3.42c0-1.52.57-2.85,1.52-3.8.95-.95,2.27-1.33,3.79-1.33s2.84.38,3.79,1.14c1.14.95,1.71,2.09,1.71,3.8s-.57,2.85-1.52,3.8c-.95.95-2.27,1.52-3.98,1.52-1.52,0-2.85-.38-3.79-1.33-.95-.95-1.52-2.28-1.52-3.8h0Zm21.24,4.93h-.57l-6.83-7.78h-.19v7.78h-.76v-9.87h.57l6.83,7.4v-7.4h.95v9.87h0Zm7.59-9.87c1.7,3.23,3.03,5.69,4.17,7.59l4.17-7.59h.19l1.14,9.87h-1.33l-.76-7.4c-1.71,3.23-3.03,5.69-3.6,7.21h-.19l-.95-1.52-2.84-5.69-.57,7.4h-1.14l1.52-9.87h.19Zm19.15,9.87h-.76l-1.52-3.8h-3.79l-1.33,3.8h-1.14l4.55-10.06h.38l4.17,10.06h-.57,0Zm-2.65-4.56l-1.52-3.6-1.52,3.6h3.03Zm6.07-4.74v3.99l1.9-.19c.57-.19.95-.38,1.33-.57l.57-1.33c0-1.14-.57-1.71-1.7-1.9h-2.09Zm1.9-.57c2.08,0,3.03.76,3.03,2.28,0,.76-.38,1.33-.95,1.9-.57.38-1.14.57-1.89.76l3.79,4.94h-1.52l-3.79-4.75h-.57v4.75h-1.14v-9.87h3.03s0,0,0,0Zm7.21,9.87v-9.11l-3.03.19v-.95h7.2v.95l-2.84-.19v9.11h-1.33Zm7.2-9.87v9.87h-1.33v-9.87h1.33Zm11.19,9.87h-.57l-6.82-7.78h-.19v7.78h-.76v-9.87h.38l7.02,7.4v-7.4h.95v9.87Z" fill="#fff" fill-rule="evenodd" stroke-width="0"/>
    </g>
    <rect width="300" height="100" fill="none" stroke-width="0"/>
  </g>
</svg>