<?xml version="1.0" encoding="UTF-8"?>
<svg id="b" data-name="Layer 2" xmlns="http://www.w3.org/2000/svg" viewBox="0 0 300 100">
  <g id="c" data-name="Layer 1">
    <g>
      <path d="m92.92,32.1h20.42v6.47h-12.62v5.48h11.12v6.14h-11.12v5.48h12.62v6.64h-20.42v-30.21Zm-1.66,15.11c0,9.13-5.81,15.11-14.77,15.11h-11.29v-30.21h11.29c8.96,0,14.77,5.98,14.77,15.11Zm-7.97,0c0-5.31-2.49-8.63-6.97-8.63h-3.49v17.1h3.49c4.48,0,6.97-3.15,6.97-8.47Zm66.06-15.11h10.96v30.21h-7.64v-5.48h-10.62c-2.82,3.49-6.97,6.14-13.11,6.14-9.46,0-15.27-6.14-15.27-15.77s5.81-15.77,14.44-15.77c7.47,0,12.28,4.65,13.11,11.95h-7.8c-.66-3.82-2.82-4.98-5.48-4.98-3.98,0-6.47,2.82-6.47,8.3,0,5.81,2.82,9.3,7.64,9.3,3.65,0,6.47-1.99,9.46-6.64l10.79-17.26Zm3.32,7.47l-6.81,11.12h6.81v-11.12Zm131.8-7.47v16.6l-9.96-16.6h-7.97v30.21h7.47v-17.26l10.46,17.26h7.64v-30.21h-7.64Zm-122.17,6.47h7.64v23.74h7.8v-23.74h7.64v-6.47h-23.07v6.47Zm102.42,8.63c0,9.46-6.14,15.77-15.27,15.77s-15.27-6.14-15.27-15.77,6.14-15.77,15.27-15.77,15.27,6.31,15.27,15.77Zm-7.97,0c0-5.81-2.82-8.8-7.3-8.8s-7.3,2.99-7.3,8.8,2.82,8.8,7.3,8.8,7.3-2.99,7.3-8.8Zm-51.29-3.65h-10.46v-11.45h-7.8v30.21h7.8v-12.12h10.46v12.12h7.8v-30.21h-7.8v11.45Zm17.76-11.45h-7.8v30.21h19.42v-6.47h-11.79v-23.74h.17Zm-180.1-6.47c-16.77,0-37.68,17.43-37.68,31.87,0,7.47,5.81,11.29,13.28,11.29,5.48,0,12.28-1.99,18.76-5.98v-28.88c-1.66,2.99-9.79,14.94-16.43,21.25-3.32,3.32-5.98,4.65-8.3,4.65-2.49,0-3.82-1.66-3.82-4.32,0-11.62,19.59-26.89,32.7-26.89,5.31,0,8.8,2.32,8.8,6.97,0,4.32-2.82,9.63-7.8,14.44v8.96c8.63-6.81,13.61-15.44,13.61-22.41.17-7.14-5.48-10.96-13.11-10.96Z" stroke-width="0"/>
      <rect width="300" height="100" fill="none" stroke-width="0"/>
    </g>
  </g>
</svg>