<?xml version="1.0" encoding="UTF-8"?>
<svg id="b" data-name="Layer 2" xmlns="http://www.w3.org/2000/svg" viewBox="0 0 110 94.11">
  <g id="c" data-name="Layer 1">
    <g>
      <path d="m53,59.36l-.18.05v.6h8.11v-26.52h-8.11v.6l.17.05c1.01.33,1.54,2.04,1.54,4.95v15.31c0,2.94-.53,4.65-1.54,4.95h0Z" stroke-width="0"/>
      <path d="m71.62,41.36l.1.25.52-.26-.33-7.72h-9.39v.74l1.68.18c1.76.21,3.24.87,4.4,1.94,1.17,1.09,2.19,2.72,3.02,4.87h0Z" stroke-width="0"/>
      <path d="m62.52,60.01h10.41l.81-7.62.02-.17-.52-.26-.11.22c-.95,1.93-2.19,3.55-3.68,4.81-1.48,1.25-3,1.94-4.53,2.06l-2.41.21v.75Z" stroke-width="0"/>
      <path d="m90.95,49.38l-.69,1.57,7.86.17,1.21,3.26c.29.78.48,1.48.57,2.07.08.58.07,1.07-.04,1.45-.1.37-.26.66-.48.88-.22.22-.51.38-.86.48l-.24.07v.77h11.61v-.76l-.24-.07c-.35-.1-.65-.27-.9-.52-.19-.17-.52-.58-1.04-1.55-.43-.79-.94-1.93-1.52-3.39l-7.89-20.19-.08-.22h-3.53l-1.67,4.09,4.55,11.72-6.6.16h0Z" stroke-width="0"/>
      <path d="m74.23,48.32c1.31,0,2.43-.02,3.17-.04.34,0,.63,0,.87-.02l4.17,11.88h8.24v-.84l-.27-.08c-.32-.1-1.03-.64-2.21-3.15l-3.17-6.6-.09-.14-.15-.04c-1.64-.41-3.08-.83-4.31-1.26,2.1-.35,3.83-1.05,5.13-2.07,1.61-1.26,2.42-2.9,2.42-4.88,0-2.31-.97-4.17-2.88-5.53-1.88-1.34-4.65-2.02-8.24-2.03h-.38v1l.34.04c1.4.15,2.49.76,3.24,1.81.77,1.08,1.16,2.66,1.16,4.71,0,1.31-.17,2.42-.51,3.29-.85,1.81-2.82,2.87-5.29,2.84h-1.23l-1.7-.04c-1.38-.03-2.45-.31-3.18-.82-.73-.51-1.26-1.27-1.6-2.26l-.09-.28h-.88v8.42h.89l.09-.29c.34-1.15.89-2.03,1.63-2.64.73-.6,1.79-.92,3.15-.95l1.67-.04h.03,0Z" stroke-width="0"/>
      <path d="m63.98,90.2c-.68-1.55-1.02-4.03-1-7.37l.05-10.15c0-1.6.15-2.8.44-3.57.27-.72.66-1.17,1.16-1.32l.17-.05v-.6l-9.41-.04h-.24v.59l.17.06c.98.33,1.49,2.03,1.48,4.9l-.05,10.15c-.03,6.75,3.47,10.41,10.41,10.86l.26.02v-.74l-.2-.04c-1.48-.29-2.57-1.2-3.23-2.71Z" stroke-width="0"/>
      <path d="m79.73,67.8v-.51l-6.95-.03h-.2v.51s.17.03.17.03c.68.11,1.35.72,2,1.81.65,1.12.98,2.53.97,4.2l-.04,8.81c-.01,2.92-.6,5.32-1.74,7.15-1.13,1.81-2.69,2.88-4.65,3.19l-.15.02v.47l.02.21.21-.03c2.29-.32,4.13-1.48,5.47-3.46,1.33-1.96,2.02-4.5,2.03-7.55l.04-8.81c0-1.65.33-3.06.95-4.19.6-1.09,1.19-1.71,1.73-1.8l.15-.03h0Z" stroke-width="0"/>
      <path d="m102.94,78.9c-.7.49-1.71.75-3.03.78l-1.5.04v1.22s1.5.06,1.5.06c1.29.04,2.29.35,2.98.93.7.59,1.22,1.45,1.54,2.56l.1.35h1.03l.04-7.98v-.45h-1.01s-.11.33-.11.33c-.32.95-.83,1.68-1.52,2.16h0Z" stroke-width="0"/>
      <path d="m108.95,85.66c-.92,1.88-2.11,3.45-3.55,4.68-1.41,1.2-2.86,1.86-4.3,1.96l-2.84.21v1.13s10.83.05,10.83.05l.87-8.02-.82-.42-.2.41h0Z" stroke-width="0"/>
      <path d="m35.53,12.44c-.68.65-1.56.83-2.02.93-.57.11-1,.13-1.01.13l-3.2.19.95,1.01,3.77-.03,4.19,11.49.08.22h8.38v-.77l-.24-.07c-.34-.1-1.08-.64-2.3-3.14l-3.26-6.53-.09-.12-.13-.03c-1.75-.42-3.28-.85-4.57-1.3,2.22-.34,4.03-1.03,5.4-2.07,1.64-1.24,2.47-2.86,2.47-4.81,0-2.27-.99-4.11-2.95-5.45-1.91-1.31-4.75-1.99-8.43-2h-.34v.92l.31.03c1.45.15,2.58.76,3.36,1.81.8,1.07,1.2,2.65,1.2,4.68s-.41,3.5-1.22,4.5c-.11.14-.23.27-.34.39h0Z" stroke-width="0"/>
      <path d="m67.94,2.55c.77.8,2.01,2.31,3.7,4.49l14.86,19.16.07.1h2.13v-7.58L74.29.27l-.05-.07h-8.73v.58l.14.07c.76.35,1.53.93,2.28,1.71Z" stroke-width="0"/>
      <path d="m85.96,1.79c.44.4.81,1.02,1.09,1.85.29.85.45,1.95.48,3.29l.24,7.97v.06l.77,1.04.11-9.07c.01-1.92.28-3.35.8-4.25.51-.89,1.24-1.5,2.19-1.82l.17-.06V.2h-7.79v.61l.18.05c.72.22,1.31.53,1.75.93h0Z" stroke-width="0"/>
      <path d="m105.86,22.75c2.75-2.25,4.14-5.45,4.14-9.49s-1.41-7.28-4.18-9.55c-2.76-2.26-6.75-3.44-11.85-3.51h-.25v.77h.25c1.1.01,2.12.15,3.03.42.9.26,1.76.71,2.54,1.31.79.6,1.46,1.37,2,2.29.54.92.98,2.1,1.29,3.48.31,1.39.47,3.01.47,4.79,0,3.99-.79,7.05-2.34,9.09-1.54,2.02-3.89,3.1-6.99,3.21h-.24v.74h.25c5.16-.12,9.16-1.32,11.89-3.56h0Z" stroke-width="0"/>
      <path d="m19.79,2.8c1.2,1.27,2.33,3.17,3.39,5.66l.51,1.2-.2-7.84v-.14l-.12-.07c-.55-.33-1.58-.66-3.06-.99-1.49-.33-3-.53-4.5-.61h-.26s0,.51,0,.51l.21.03c1.49.23,2.85.98,4.03,2.24Z" stroke-width="0"/>
      <path d="m18.67,15.73c.46.77.7,2.01.7,3.71,0,2.03-.31,3.58-.91,4.61-.58.99-1.5,1.63-2.72,1.89l-.2.04v.49l.27-.02c1.2-.1,2.38-.3,3.5-.61,1.12-.3,2.01-.63,2.68-.99l3.43,1.53-.1-.48c-.17-.79-.29-1.58-.35-2.36-.06-.82-.1-2.2-.1-4.1,0-2.86.47-4.48,1.42-4.96l.94-.47h-12.04l1.81.49c.73.2,1.28.61,1.66,1.24h0Z" stroke-width="0"/>
      <path d="m6.42,24.75c1.94,1.06,4.17,1.63,6.64,1.7l.24-.02v-.46l-.23-.02c-1.99-.17-3.59-1.35-4.77-3.51-1.21-2.23-1.82-5.31-1.82-9.18s.61-6.73,1.82-8.96c1.18-2.18,2.79-3.43,4.79-3.74l.21-.03v-.52l-.26.02c-2.46.16-4.69.79-6.62,1.86-1.97,1.1-3.55,2.64-4.69,4.61-1.14,1.97-1.72,4.24-1.72,6.77s.58,4.89,1.72,6.87c1.14,1.99,2.72,3.54,4.7,4.62h0Z" stroke-width="0"/>
      <path d="m55.36,20.73c.29.77.49,1.46.57,2.06.08.58.07,1.07-.04,1.45-.1.37-.27.68-.5.9s-.53.39-.9.5l-.18.05v.61h18.99v-.61l-.18-.05c-1.02-.31-1.8-.91-2.31-1.79-.52-.9-.8-2.34-.85-4.28l-.24-12.11v-.06l-.77-1.09-.17,13.25c-.02,1.32-.18,2.43-.46,3.29-.28.85-.62,1.48-1.02,1.86-.41.39-.93.7-1.56.91l-.08.03-.11-.03c-.35-.1-.67-.28-.94-.53-.28-.25-.63-.77-1.06-1.54-.44-.78-.95-1.91-1.52-3.34L54.15.36l-.06-.16h-3.41l-1.64,3.94,4.61,11.97-6.83.17-.56,1.12,7.91.17,1.19,3.15h0Z" stroke-width="0"/>
      <path d="m27.01,41.28c-.62-1.63-1.5-3.03-2.6-4.18-1.11-1.14-2.44-2.06-3.96-2.75-1.52-.68-3.21-1.1-5.02-1.24l-.26-.02v.72l.2.04c1.8.31,3.24,1.56,4.29,3.72,1.07,2.2,1.62,5.25,1.62,9.07s-.54,6.85-1.62,9.07c-1.05,2.18-2.5,3.45-4.3,3.78l-.2.04v.72l.26-.02c1.8-.14,3.49-.56,5.02-1.25,1.53-.69,2.87-1.62,3.97-2.77s1.98-2.56,2.6-4.19c.62-1.63.93-3.44.93-5.37s-.31-3.73-.93-5.36h0Z" stroke-width="0"/>
      <path d="m6.39,58.23c1.88,1.13,4.06,1.79,6.49,1.98l.26.02v-.72l-.2-.04c-1.81-.33-3.26-1.6-4.31-3.77-1.07-2.21-1.62-5.27-1.62-9.07s.54-6.87,1.6-9.07c1.04-2.16,2.47-3.41,4.24-3.72l.2-.04v-.72l-.26.02c-1.8.14-3.49.56-5.01,1.24-1.52.68-2.85,1.61-3.95,2.75-1.1,1.14-1.97,2.55-2.59,4.18-.62,1.63-.93,3.43-.93,5.36,0,2.58.54,4.9,1.62,6.89,1.08,2,2.58,3.58,4.47,4.71h0Z" stroke-width="0"/>
      <path d="m38.51,57.93c-.32-.86-.47-2.33-.47-4.36v-20.06h-8.11v.6l.17.05c1.01.33,1.54,2.04,1.54,4.95v15.31c0,2.94-.53,4.65-1.53,4.95l-.18.05v.6h10.18v-.62l-.19-.05c-.64-.15-1.12-.64-1.41-1.44h0Z" stroke-width="0"/>
      <path d="m42.57,49.17c-.68.52-1.56.82-2.61.9l-.23.02v.75h.25c3.67-.01,6.54-.81,8.51-2.36,1.93-1.52,2.94-3.66,3-6.37-.06-2.7-1.07-4.84-3-6.36-1.97-1.55-4.84-2.34-8.51-2.36h-.25v.75l.23.02c1.05.08,1.93.38,2.61.9.68.52,1.22,1.38,1.61,2.57.38,1.16.58,2.66.6,4.48-.02,1.82-.22,3.33-.6,4.48-.39,1.19-.93,2.05-1.61,2.57Z" stroke-width="0"/>
      <path d="m34.9,68.19c-1.49.67-2.79,1.58-3.86,2.71-1.08,1.12-1.93,2.51-2.55,4.12-.61,1.61-.93,3.39-.93,5.3,0,2.55.51,4.84,1.55,6.82,1.04,1.98,2.5,3.56,4.33,4.68,1.83,1.12,3.95,1.79,6.32,1.99l.26.02v-.71l-.2-.04c-1.76-.33-3.17-1.6-4.18-3.75-1.03-2.19-1.55-5.22-1.54-8.98.02-3.78.55-6.8,1.6-8.97,1.02-2.13,2.42-3.36,4.14-3.66l.2-.04v-.71l-.26.02c-1.76.13-3.4.54-4.89,1.21h0Z" stroke-width="0"/>
      <path d="m53.61,75.12c-.6-1.61-1.44-3.01-2.52-4.15-1.07-1.13-2.37-2.05-3.85-2.74-1.48-.68-3.13-1.1-4.89-1.25l-.26-.02v.71l.2.04c1.75.31,3.15,1.56,4.16,3.7,1.03,2.18,1.55,5.2,1.54,8.98-.02,3.76-.56,6.77-1.61,8.96-1.03,2.15-2.45,3.4-4.2,3.72l-.2.04v.71l.26-.02c1.76-.13,3.4-.54,4.9-1.22,1.5-.68,2.8-1.59,3.88-2.72,1.08-1.13,1.94-2.52,2.55-4.14.61-1.61.93-3.4.93-5.3,0-1.91-.29-3.69-.89-5.3h0Z" stroke-width="0"/>
      <path d="m1.55,67.1v.6l.16.06c.98.33,1.49,2.03,1.48,4.9l-.06,15.14c-.01,2.91-.54,4.6-1.51,4.89l-.17.05v.6l9.41.04h.24v-.61l-.18-.05c-1.03-.29-1.56-1.98-1.55-4.9l.06-15.14c0-1.6.15-2.8.43-3.58.26-.72.64-1.16,1.14-1.31l.17-.05v-.6l-9.38-.04h-.24,0Z" stroke-width="0"/>
      <path d="m17.18,67.1v.6l.17.05c1.01.33,1.54,2.03,1.53,4.9l-.03,6.37-6.62.18-.22.06v.11l-.49.78,7.32.16-.03,7.48c-.01,2.91-.55,4.6-1.56,4.89l-.18.05v.6l9.41.04h.24v-.6l-.18-.05c-1.01-.3-1.53-1.99-1.52-4.9l.06-15.14c.01-2.88.54-4.57,1.54-4.89l.17-.05v-.6l-9.38-.04h-.24,0Z" stroke-width="0"/>
      <path d="m108.68,74.98l.17.47.84-.42-.3-7.97-6.11-.03h-10.67s-.46-.01-.46-.01v1.35h9.09c.49.02,1.21.09,1.93.3,1.01.33,1.9.85,2.65,1.56,1.11,1.06,2.08,2.66,2.87,4.75h0Z" stroke-width="0"/>
      <path d="m95.8,81.82c-.52-.58-1.13-1.13-1.8-1.63-.67-.5-1.38-.95-2.13-1.34-.73-.38-1.47-.77-2.22-1.14-.74-.37-1.44-.76-2.09-1.15-.64-.39-1.22-.81-1.73-1.25-.49-.43-.88-.94-1.17-1.53-.28-.58-.43-1.23-.43-1.92,0-.7.15-1.35.44-1.91.62-1.1,1.87-1.63,2.56-1.84l.13-.04v-.81l-.26.02c-2.36.19-4.31.99-5.8,2.38-1.5,1.4-2.26,3.13-2.27,5.15,0,.93.14,1.81.44,2.6.3.79.7,1.48,1.21,2.05.5.56,1.08,1.09,1.72,1.57.64.48,1.32.91,2.03,1.3.71.38,1.42.76,2.12,1.12.7.36,1.37.75,1.99,1.15.62.4,1.17.82,1.65,1.27.47.43.84.95,1.11,1.53.27.58.41,1.23.4,1.93,0,.71-.15,1.36-.44,1.93-1.12,1.9-4.09,2.52-6.74,1.42-2-.92-3.19-2.41-3.24-2.47l-.23-.28-.39.67.11.13c.48.57,3.07,3.4,6.94,3.4.21,0,.44,0,.67-.03h.03c2.76-.18,4.96-.9,6.54-2.15,1.68-1.33,2.54-3.08,2.55-5.2,0-.99-.15-1.92-.46-2.76s-.74-1.56-1.27-2.15h0Z" stroke-width="0"/>
    </g>
  </g>
</svg>