<?xml version="1.0" encoding="UTF-8"?>
<svg id="b" data-name="Layer 2" xmlns="http://www.w3.org/2000/svg" viewBox="0 0 300 100">
  <g id="c" data-name="Layer 1">
    <rect width="300" height="100" fill="none" stroke-width="0"/>
    <g>
      <path d="m289.21,61.73c-2.03,0-4.07-.03-6.1-.02-.49,0-.72-.12-.91-.62-1.52-3.85-3.09-7.68-4.67-11.59h-.69c-4.42,0-8.84,0-13.26,0-.5,0-.75.1-.96.64-1.51,3.85-3.09,7.68-4.65,11.53h-6.79c.59-1.46,1.16-2.9,1.75-4.32,1.15-2.78,2.3-5.55,3.46-8.33,1.19-2.87,2.4-5.72,3.59-8.59,1.12-2.71,2.22-5.42,3.35-8.13,1.29-3.12,2.6-6.23,3.9-9.34.03-.07.06-.13.09-.2q.7-1.65,2.45-1.65c.75,0,1.51.03,2.26-.01.42-.02.61.13.77.5.97,2.37,1.98,4.73,2.95,7.1,1.28,3.1,2.54,6.2,3.81,9.3,1.56,3.81,3.11,7.62,4.68,11.42,1.58,3.82,3.18,7.64,4.77,11.46.04.1.15.17.22.26v.6Zm-14.08-17.77c-1.63-4.23-3.22-8.35-4.88-12.65-1.75,4.29-3.45,8.44-5.17,12.65h10.05Z" stroke-width="0"/>
      <path d="m106.05,90.03c-.37-1.17-.72-2.34-1.12-3.5-1.19-3.42-2.41-6.83-3.61-10.24-.03-.09-.04-.19-.07-.33h2.76c1.07,3.32,2.15,6.65,3.29,10.19.75-2.21,1.42-4.21,2.09-6.2.4-1.19.79-2.38,1.24-3.56.08-.21.38-.43.6-.46.54-.07,1.1-.02,1.65-.02,1.13,3.37,2.24,6.7,3.35,10.03.06,0,.13,0,.19,0,.42-1.31.83-2.62,1.26-3.93.6-1.85,1.22-3.69,1.79-5.55.14-.44.33-.59.78-.57.67.03,1.34,0,2.11,0-1.64,4.78-3.25,9.45-4.86,14.12h-2.41c-.34-1.1-.67-2.2-1.04-3.29-.71-2.11-1.44-4.21-2.16-6.31-.05,0-.1-.01-.16-.02-1.09,3.21-2.18,6.41-3.28,9.62h-2.41Z" stroke-width="0"/>
      <path d="m224.24,90.03c0-3.89.03-7.77.02-11.66,0-.79-.13-1.57-.21-2.46.96,0,1.81-.03,2.65.02.18.01.4.26.52.44,1.22,1.91,2.43,3.83,3.64,5.75.07.11.12.22.25.46.86-1.33,1.61-2.47,2.34-3.63.53-.83,1.02-1.68,1.54-2.52.21-.34.44-.59.93-.55.67.06,1.35.02,2.19.02v14.12h-2.56v-9.76c-1.52,2.27-2.93,4.36-4.38,6.54-1.46-2.22-2.85-4.31-4.23-6.41-.04.03-.08.05-.13.08v9.55h-2.56Z" stroke-width="0"/>
      <path d="m57.51,90.03c0-3.24,0-6.47.04-9.71.02-1.44.14-2.88.21-4.42,1.08,0,2.18-.02,3.28,0,1.47.03,2.96,0,4.41.18,1.09.13,2.08.68,2.73,1.63.99,1.43.55,3.63-.91,4.61-.08.05-.15.12-.24.18.47.37.97.68,1.37,1.07,1.65,1.61,1.37,5.13-1.41,5.98-.45.14-.9.31-1.35.47h-8.14Zm2.72-2.38c1.77,0,3.49.07,5.2-.03.89-.05,1.58-.91,1.61-1.68.03-.66-.59-1.4-1.45-1.66-1.75-.53-3.55-.24-5.36-.31v3.67Zm.16-5.87c1.41,0,2.78.05,4.14-.02.84-.04,1.58-.97,1.6-1.78.02-.79-.65-1.63-1.55-1.69-1.39-.09-2.78-.02-4.2-.02v3.5Z" stroke-width="0"/>
      <path d="m147.2,90.03c0-4.38.02-8.77.03-13.15,0-.29,0-.59,0-.97.74,0,1.41-.04,2.07.02.23.02.49.23.65.43,2.32,2.98,4.62,5.97,7.05,9.12v-9.53h2.71v14.08h-2.41c-2.41-3.16-4.83-6.32-7.24-9.48-.05.02-.1.04-.15.07v9.42h-2.71Z" stroke-width="0"/>
      <path d="m167.4,90.03c0-4.39.02-8.77.03-13.16,0-.29,0-.59,0-1.1,2.64.15,5.22.12,7.74.49,2.52.36,4.57,2.82,5.03,5.36.42,2.36-.13,4.46-1.71,6.19-.74.81-1.84,1.28-2.79,1.9-.19.13-.41.22-.61.33h-7.69Zm2.71-2.23c1.12,0,2.17.02,3.22,0,.37,0,.74-.08,1.09-.18,2.51-.78,3.68-3.08,3.18-5.54-.37-1.86-1.55-3.14-3.43-3.57-.93-.21-1.92-.18-2.89-.23-.39-.02-.78,0-1.17,0v9.54Z" stroke-width="0"/>
      <path d="m186.4,90.03c0-3.24,0-6.47.04-9.71.02-1.44.14-2.88.21-4.37h2.42v5.77h6.67v-5.77h2.72v14.08h-2.86v-5.69h-6.48v5.69h-2.71Z" stroke-width="0"/>
      <path d="m203.89,90.03c1.02-2.43,2.04-4.85,3.07-7.28.9-2.11,1.81-4.2,2.71-6.31.16-.39.39-.55.84-.55,1.99,0,1.93,0,2.57,1.51,1.77,4.12,3.59,8.21,5.4,12.31.05.11.12.21.18.32h-2.86c-.42-1.12-.83-2.23-1.25-3.34-2.01,0-3.94,0-5.87,0-.1,0-.21-.03-.3,0-.21.09-.51.17-.58.33-.43.99-.81,2-1.21,3h-2.71Zm7.24-10.91c-.82,1.9-1.54,3.6-2.28,5.31h4.63c-.78-1.77-1.52-3.44-2.35-5.31Z" stroke-width="0"/>
      <path d="m132.73,90.03c0-1.71.06-3.41,0-5.11-.02-.44-.34-.91-.6-1.31-1.55-2.38-3.12-4.74-4.68-7.11-.1-.16-.17-.33-.3-.59,1,0,1.9-.03,2.79.02.2.01.46.25.58.45,1.15,1.81,2.28,3.64,3.42,5.45.05.08.12.16.25.32.35-.54.65-1.01.95-1.48.92-1.44,1.81-2.88,2.76-4.3.15-.22.49-.42.75-.44.77-.06,1.55-.02,2.49-.02-.54.82-1.01,1.55-1.49,2.28-1.31,1.97-2.64,3.94-3.94,5.92-.15.23-.28.54-.28.82-.02,1.7,0,3.41.02,5.12h-2.71Z" stroke-width="0"/>
      <path d="m79.22,90.03c0-1.66.05-3.31,0-4.97,0-.39-.23-.8-.45-1.14-1.64-2.52-3.31-5.03-4.97-7.55-.06-.1-.1-.21-.22-.46,1.03,0,2-.15,2.88.06.44.1.75.84,1.07,1.33,1.02,1.57,2.02,3.16,3.09,4.86.59-.9,1.12-1.71,1.64-2.53.7-1.11,1.37-2.23,2.09-3.32.13-.2.45-.37.69-.38.77-.05,1.55-.02,2.51-.02-.36.57-.66,1.06-.97,1.53-1.47,2.22-2.95,4.44-4.41,6.67-.13.19-.25.44-.26.66-.01,1.76,0,3.51.02,5.27h-2.71Z" stroke-width="0"/>
      <path d="m289.21,25.44c-.5.56-.92,1.22-1.51,1.65-1.16.83-3.51.69-4.51-1.16-.88-1.63-.37-3.47,1.14-4.4,1.57-.97,4.14-.34,4.76,1.6,0,.03.08.04.12.06v2.26Zm-1.66.77c1.35-.84,1.23-2.74.32-3.73-1.36-1.49-3.78-.85-4.42,1.02-.38,1.11-.17,2.22,1.15,3.03,1.07.65,2.15.56,2.98-.34l-.03.03Z" stroke-width="0"/>
      <path d="m13.91,15.85v45.65h-7.29V10.49c.63-.08,1.26-.2,1.89-.22,1.92-.07,3.85-.11,5.78-.16,2.5-.06,5.01-.13,7.51-.14,2.94-.01,5.87.16,8.68,1.07,4.4,1.44,7.46,4.19,8.32,8.95.49,2.73.49,5.44-.38,8.09-1.06,3.25-3.27,5.61-6.11,7.4-1.06.67-2.19,1.22-3.34,1.85,4.89,7.39,9.78,14.79,14.74,22.27-2.3,1.06-4.53,2.08-6.81,3.12-1.63-2.52-3.22-5.01-4.83-7.49-2.63-4.06-5.26-8.12-7.89-12.18-1.27-1.97-2.55-3.94-3.79-5.93-.14-.22-.13-.6-.05-.87.1-.4.38-.76.48-1.16.29-1.15,1.15-1.36,2.15-1.52,2.37-.36,4.46-1.39,6.14-3.05,1.69-1.66,2.6-3.75,2.66-6.18.04-1.5-.11-2.98-.7-4.37-1.08-2.51-3.23-3.57-5.75-4.06-2.9-.57-5.84-.24-8.76-.29-.84-.02-1.68.13-2.65.22Z" stroke-width="0"/>
      <path d="m104.04,21.86c1.45,0,2.86-.01,4.26.02.19,0,.46.19.54.36,1.26,2.68,2.49,5.38,3.75,8.06,2.15,4.61,4.32,9.22,6.47,13.83,1.1,2.37,2.18,4.76,3.27,7.14.06.12.15.23.25.39,1-2.15,1.97-4.25,2.94-6.36.6-1.3,1.17-2.61,1.77-3.91,1.84-4.04,3.69-8.09,5.54-12.13,1.09-2.38,2.18-4.76,3.29-7.13.06-.13.31-.25.47-.25,1.31-.02,2.61-.03,3.92,0,.17,0,.45.25.47.41.18,1.5.3,3.01.48,4.5.23,1.91.5,3.82.73,5.73.18,1.5.3,3.01.48,4.51.18,1.55.39,3.09.57,4.63.17,1.48.31,2.95.48,4.43.18,1.55.4,3.09.58,4.63.17,1.5.31,3.01.48,4.51.18,1.55.38,3.09.56,4.64.07.58.11,1.17.17,1.79h-6.64c-.88-8.58-1.75-17.17-2.63-25.77-.05,0-.11-.01-.16-.02-.75,1.6-1.51,3.2-2.25,4.81-.68,1.48-1.33,2.97-2.01,4.45-2.13,4.67-4.27,9.34-6.41,14.01-.3.65-.61,1.3-.9,1.95-.18.42-.39.65-.93.62-.98-.06-1.96,0-2.94-.04-.23-.01-.57-.2-.66-.39-1.7-3.6-3.36-7.21-5.05-10.81-.86-1.84-1.74-3.66-2.6-5.5-1.27-2.71-2.52-5.42-3.78-8.13-.08-.17-.18-.33-.33-.61-.94,8.55-1.87,16.96-2.8,25.42h-6.28c1.63-13.25,3.26-26.48,4.9-39.8Z" stroke-width="0"/>
      <path d="m208.02,61.39V22.08c.97-.08,1.91-.2,2.85-.22,3.36-.07,6.72-.27,10.07-.12,4.95.22,9.68,1.37,13.9,4.14,3.05,2,4.88,4.92,6.25,8.19,1.24,2.97,1.58,6.1,1.35,9.27-.3,4.09-1.57,7.9-4.15,11.14-2.34,2.94-5.3,4.99-9.04,5.89-2.82.68-5.64,1.27-8.56,1.33-1.6.03-3.2.18-4.8.13-2.61-.08-5.21-.28-7.86-.44Zm6.57-5.61c1.37.14,2.71.34,4.06.38,1.29.04,2.59-.07,3.89-.13,2.07-.1,4.1-.47,5.92-1.45,4.3-2.29,6.35-6.09,6.78-10.81.22-2.38-.05-4.75-1.02-6.99-1.57-3.62-4.1-6.27-7.83-7.67-2.11-.79-4.27-1.41-6.55-1.45-1.74-.03-3.47,0-5.25,0v28.11Z" stroke-width="0"/>
      <path d="m163.53,61.68h-6.82c.58-1.43,1.12-2.82,1.69-4.19,1.04-2.53,2.1-5.05,3.15-7.57,1.3-3.11,2.61-6.23,3.9-9.35,1.12-2.71,2.22-5.43,3.34-8.13,1.19-2.87,2.4-5.73,3.6-8.59.3-.73.6-1.46.87-2.2.14-.4.35-.57.81-.56,1.25.04,2.51.04,3.77,0,.46-.01.68.18.83.56,1.87,4.56,3.75,9.11,5.62,13.67,1.31,3.19,2.59,6.39,3.91,9.58,1.49,3.62,3.01,7.23,4.51,10.85.81,1.95,1.6,3.91,2.44,5.95-2.31,0-4.54,0-6.77-.02-.15,0-.37-.22-.43-.38-1.52-3.74-3.03-7.49-4.51-11.25-.17-.43-.36-.56-.8-.56-4.52.01-9.04.01-13.56,0-.4,0-.62.09-.79.49-1.57,3.9-3.16,7.8-4.75,11.7Zm17.14-17.73c-1.66-4.18-3.3-8.33-5.02-12.66-1.76,4.32-3.44,8.45-5.15,12.66h10.17Z" stroke-width="0"/>
      <path d="m56.48,61.68h-6.68c5.67-13.55,11.3-27.04,16.97-40.58,1.46,0,2.91-.01,4.36.02.16,0,.41.18.47.34,1.33,3.23,2.65,6.48,3.96,9.72,1.39,3.42,2.78,6.85,4.17,10.27,1.64,4.04,3.28,8.08,4.93,12.12,1.05,2.58,2.12,5.15,3.18,7.72.04.11.05.23.09.41-2.2,0-4.36,0-6.51-.02-.17,0-.44-.21-.51-.38-1.53-3.71-3.02-7.44-4.56-11.15-.09-.22-.45-.47-.68-.47-4.57-.03-9.14-.03-13.72,0-.22,0-.56.16-.63.34-1,2.36-1.96,4.73-2.94,7.1-.63,1.52-1.27,3.04-1.91,4.57Zm12.42-30.44c-1.75,4.31-3.44,8.46-5.16,12.7h10.2c-1.68-4.24-3.34-8.42-5.03-12.7Z" stroke-width="0"/>
      <path d="m287.58,26.19c-.58.09-.91-.22-1.18-.68-.22-.37-.49-.7-.74-1.04-.63.47-.04,1.41-.91,1.78v-3.94c.61,0,1.21-.06,1.79.03.29.04.73.33.77.56.07.42.05,1.07-.22,1.29-.48.4-.27.64-.08.99.19.34.35.69.53,1.03,0,0,.03-.03.03-.03Zm-2.27-3.3v.85c1.28.18,1.43.08,1.28-.85h-1.28Z" stroke-width="0"/>
    </g>
  </g>
</svg>