<?xml version="1.0" encoding="UTF-8"?>
<svg id="b" data-name="Layer 2" xmlns="http://www.w3.org/2000/svg" viewBox="0 0 181.85 29.92">
  <g id="c" data-name="Layer 1">
    <path d="m21.52,28.39c-2.41-1.51-4.18-6.71-4.18-12.9,0-.23,0-.45,0-.67h0c-6.7-1.05-11.54-3.93-11.66-7.34l-.02.04c-1.64,2.04-2.57,4.39-2.57,6.9,0,7.38,8.1,13.43,18.38,13.97h.04ZM0,14.96C0,6.7,10.28,0,22.96,0s22.96,6.7,22.96,14.96-10.28,14.96-22.96,14.96S0,23.22,0,14.96h0ZM22.96,2.16c2.45,0,4.53,3.71,5.3,8.9h0c4.76-.75,8.1-2.46,8.1-4.45,0-2.67-6-4.83-13.4-4.83s-13.4,2.16-13.4,4.83c0,1.99,3.33,3.7,8.1,4.44h0c.77-5.17,2.85-8.89,5.3-8.89h0Zm1.48,26.23c10.28-.54,18.38-6.58,18.38-13.97,0-2.51-.94-4.86-2.57-6.9l-.02-.04c-.12,3.41-4.96,6.29-11.66,7.35h0c0,.22,0,.44,0,.67,0,6.18-1.78,11.39-4.18,12.9h.04Zm-1.48-16.95c1.06,0,2.13-.04,3.18-.14h0c-.51-3.32-1.74-5.66-3.18-5.66s-2.67,2.34-3.18,5.67h0c1.06.09,2.12.14,3.18.14h0Zm0,12.3c1.84,0,3.35-3.84,3.43-8.65h0c-2.29.21-4.59.21-6.87,0h0c.08,4.81,1.58,8.64,3.43,8.64Zm94.2-8.78c0-6.31,5.12-11.43,11.43-11.43s11.43,5.12,11.43,11.43-5.12,11.43-11.43,11.43-11.43-5.12-11.43-11.43h0Zm11.43,7.24c3.53,0,6.38-3.24,6.38-7.24s-2.86-7.24-6.38-7.24-6.38,3.24-6.38,7.24,2.86,7.24,6.38,7.24Zm24.41-13.91v17.58h-4.82V8.29h.02-6.74v-3.97h18.26v3.97h-6.72Zm12.55,12.73h0s-1.85,4.85-1.85,4.85h-5.63l8.89-21.56h6l8.89,21.56h-5.63l-1.85-4.85h0s-8.82,0-8.82,0Zm4.41-3.64h3.03,0s-3.01-7.89-3.01-7.89h-.04l-3.01,7.89h0s3.03,0,3.03,0Zm-105.75-9.09v17.58h-4.82V8.29h.02-6.74v-3.97h18.26v3.97h-6.72Zm7.95,6.67c0-6.31,5.12-11.43,11.43-11.43s11.43,5.12,11.43,11.43-5.12,11.43-11.43,11.43-11.43-5.12-11.43-11.43Zm11.43,7.24c3.52,0,6.38-3.24,6.38-7.24s-2.86-7.24-6.38-7.24-6.38,3.24-6.38,7.24,2.86,7.24,6.38,7.24Zm22.5,3.67h2.44v-8.18l8.4-13.37h-5.63l-5.22,9.06-5.22-9.06h-5.63l8.4,13.37v8.19h2.44,0Z" fill-rule="evenodd" stroke-width="0"/>
  </g>
</svg>