<?xml version="1.0" encoding="UTF-8"?>
<svg id="b" data-name="Layer 2" xmlns="http://www.w3.org/2000/svg" viewBox="0 0 300 100">
  <g id="c" data-name="Layer 1">
    <g>
      <g>
        <path d="m277.73,33.94c-8.41,0-16.84.02-25.27-.02-1.16,0-1.61.44-1.82,1.54-.46,2.44-.99,4.88-1.63,7.28-.35,1.34.15,1.59,1.34,1.58,3.34-.04,6.68.03,10.02-.03,1.61-.03,1.93.46,1.32,1.94-3.24,7.84-6.44,15.69-9.61,23.56-.44,1.09-.99,1.6-2.23,1.59-6.94-.05-13.88-.02-21.12-.02,12.72-14.87,16.28-30.28,4.1-47.13.49-.69,1.4-.24,2.13-.25,11.32-.04,22.65-.03,33.97-.03,12.54,0,21.46,8.15,22.5,20.6.31,3.79.15,7.56-1.08,11.21-4.15,12.3-13.53,16.43-25.05,15.66-1.72-.11-1.08-1.04-.76-1.88,1.37-3.62,2.75-7.24,4.13-10.86,2.83-7.41,5.67-14.81,8.5-22.21.29-.76.79-1.47.54-2.55Z" fill="#e86029" stroke-width="0"/>
        <path d="m42.38,54.51c2.42,5.58,4.8,11.05,7.33,16.88-3.84,0-7.33-.06-10.81.03-1.42.04-1.65-.94-2.04-1.85-1.74-4.07-3.66-8.07-5.12-12.23-1.31-3.75-4.24-1.9-6.51-2.27-2.28-.37-1.82,1.69-2.1,2.83-.96,3.84-1.77,7.72-2.56,11.6-.28,1.38-.85,2.02-2.4,1.94-2.5-.13-5.02-.18-7.51,0-2.17.16-2.7-.39-2.19-2.57,2.77-11.93,5.4-23.89,8.08-35.84.56-2.52,1.14-5.03,1.69-7.55.18-.84.26-1.56,1.46-1.55,7.79.09,15.62-.31,23.37.28,8.17.62,12.93,5.19,13.69,11.75.84,7.29-3.48,14.48-10.41,17.24-1.27.51-2.61.86-3.98,1.31Zm-9.78-9.36c2.67-.15,5.21.3,7.64-.46,3.06-.97,4.84-3.79,4.43-6.82-.34-2.5-2.32-3.88-5.8-3.97-1.85-.05-3.7-.01-5.56-.01-4.94,0-4.96,0-5.93,4.68-.43,2.06-1.79,4.9-.92,6.02,1.17,1.52,4.14.28,6.13.56Z" fill="#040404" stroke-width="0"/>
        <path d="m194.72,71.39c-4,0-7.34-.04-10.68.02-1.37.03-1.71-.27-1.38-1.73,3.33-14.74,6.56-29.49,9.84-44.24.17-.78.32-1.58,1.53-1.53,7.03.3,14.15-.8,21.1.79,13.91,3.18,19.92,15.29,14.73,29.47-3.72,10.16-11.48,15.21-21.9,16.78-4.62.69-9.27.35-13.25.43Zm6.52-9.94c10.15,0,16.21-4.35,18.03-12.92,1.83-8.62-2.97-14.57-11.76-14.58-.74,0-1.5.08-2.22-.02-1.9-.26-2.71.35-3.11,2.39-1.35,6.86-2.97,13.67-4.51,20.5-1.05,4.63-1.07,4.63,3.57,4.62Z" fill="#040404" stroke-width="0"/>
        <path d="m101.71,71.39c-.09,0-.19,0-.28,0-5.54,0-5.62.02-6.72-5.37-.38-1.87-1.1-2.51-3.1-2.46-5.84.16-11.69.11-17.54.02-1.61-.03-2.71.38-3.24,1.9-1.73,4.97-5.17,6.91-10.37,5.93-1.51-.28-3.86.68-4.44-.36-.77-1.37,1.13-2.85,1.93-4.23,8-13.7,16.08-27.35,24.07-41.05.8-1.37,1.67-1.92,3.27-1.86,3.43.13,6.87.09,10.3.01,1.31-.03,1.91.28,2.21,1.68,3.19,14.67,6.44,29.32,9.73,43.96.36,1.6-.22,1.95-1.67,1.85-1.39-.09-2.78-.02-4.17-.02Zm-13.64-35.06c-3.55,6.03-6.76,11.5-10.15,17.27,4.45,0,8.33.02,12.2-.02.71,0,1.86.39,1.52-1.14-1.16-5.17-2.29-10.34-3.57-16.12Z" fill="#040404" stroke-width="0"/>
        <path d="m137.84,55.18c-2.78,0-6.21-.99-8.14.28-1.99,1.3-1.49,5.06-2.24,7.7-.76,2.64-.3,6.2-2.23,7.76-1.94,1.56-5.34.39-8.1.45-3.59.08-3.61.01-2.84-3.44,3.12-14.01,6.26-28.02,9.38-42.03.22-1,.2-1.99,1.71-1.98,7.23.08,14.49-.28,21.69.23,7.67.55,12.3,4.54,13.63,10.54,1.44,6.54-1.83,13.91-7.81,17.59-3.81,2.34-6.03,2.75-15.04,2.9Zm.11-10.22c1.85,0,3.73.19,5.55-.04,3.34-.42,5.65-3.32,5.49-6.57-.13-2.83-2.12-4.33-5.93-4.45-1.3-.04-2.6,0-3.9,0q-5.21,0-6.33,4.89-1.45,6.34,5.11,6.18Z" fill="#040404" stroke-width="0"/>
        <path d="m177.54,23.94c5.96,0,5.99,0,4.74,5.65-2.93,13.2-5.93,26.39-8.79,39.61-.37,1.69-.91,2.34-2.69,2.23-2.59-.15-5.2-.15-7.79,0-1.93.11-2.09-.59-1.71-2.24,3.04-13.37,6-26.76,9.01-40.13,1.15-5.12,1.19-5.11,7.22-5.11Z" fill="#040404" stroke-width="0"/>
      </g>
      <rect width="300" height="100" fill="none" stroke-width="0"/>
    </g>
  </g>
</svg>