<?xml version="1.0" encoding="UTF-8"?>
<svg id="b" data-name="Layer 2" xmlns="http://www.w3.org/2000/svg" viewBox="0 0 300 100">
  <g id="c" data-name="Layer 1">
    <g>
      <g>
        <path d="m233.88,78.81H4.39V31.99h229.54l-.05,46.82h0Z" fill-rule="evenodd" stroke-width="0"/>
        <path d="m285.75,47.79c2.68,6.32,1.09,14.77-3.83,19.71-2.38,2.02-4.94,4.14-8.25,3.48-1.8-.42-3.1-1.68-3.54-3.38-.39-1.48-.29-2.91-.1-4.44l13.4-.02-.36-.46c-6.76-7.98-12.13-16.99-15.72-26.48-3.86,9.61-9.28,19.1-15.72,26.99l13.13-.03c-.08,1.76.33,3.9-.48,5.41-.82,1.65-2.73,2.47-4.5,2.51-5.3-.5-8.82-5.16-10.84-9.57-2.34-5.42-1.48-12.86,2.21-17.49,5.13-6.81,14.19-9.57,22.62-6.96,5.15,1.62,9.72,5.63,11.98,10.73h0Zm3.74-3.67c4.4,7.82,3.01,18.4-2.49,25.13-6.38,7.62-17.55,10.96-27.42,7.83-9.3-2.7-16.48-11.29-16.97-21.16-.57-9.21,4.87-17.69,12.75-21.74,7.69-4.11,18.62-3.72,25.98,1.16,3.28,2.07,6.17,5.33,8.15,8.79h0Z" fill-rule="evenodd" stroke-width="0"/>
        <path d="m88.46,44.6c.39.81.6,1.69.58,2.78h-25.37c-.77,0-1.99.45-2.43,1.47-.55,1.27.08,2.73,1.34,3.29.5.22,1.39.19,1.39.19h18.45c3.3.24,6.24,2.37,7.38,5.89.99,3.06.48,5.61-1.54,8.12-2.32,2.89-5.51,2.93-9.01,2.92l-20.42-.02c-2.22,0-4.08-2.2-4.4-4.46v-1.14s26.94.03,26.94.03c.9,0,2.06-1.25,2.09-2.54.03-1.39-.92-2.71-2.29-2.71h-19.42c-3.36,0-6.78-3.18-7.33-7.15-.45-3.21.6-5.65,3.08-7.72,1.87-1.57,3.29-2.01,5.9-2.02l17.96-.02c2.78-.05,5.8.43,7.1,3.09h0Zm41.99-2.97c4.34,0,7.86,4.5,7.74,9.21-.11,4.54-4.04,8.74-7.65,8.74h-15.15c-2.22-.27-3.92-1.9-4.79-3.77-.3-.73-.32-1.76-.4-2.53l.78.02h18.31c.79,0,1.54-.73,1.92-1.64.34-.84.32-1.52-.1-2.32-.46-.89-1.29-1.45-2.11-1.45h-20.42l-.19.19v18.22c0,1.7-1.47,2.94-3.2,2.91-1.52-.03-2.93-1.27-2.93-2.88v-19.51c0-1.61.61-2.57,1.75-3.65,1.06-.99,2.46-1.55,3.91-1.57l22.53.02h0Zm32.87,7.36c2.01,2.82,4.23,5.54,6.14,8.47h-13.54l6.74-8.5s.18-.29.36-.27c.17.02.31.31.31.31h0Zm5.54-3.16c3.49,4.9,10.55,14.08,14.13,19.26.45,1.17-.08,2.43-.67,3.38-.96.91-2.54,1.1-3.65.58-1.73-1.56-2.92-3.49-4.31-5.22l-23.29-.05-2.75,3.76c-.87,1.19-1.97,2-3.67,1.7-.88-.18-1.72-.93-2.01-1.74-.45-1.05-.4-2.04.19-3l14.76-19.71c1.24-1.87,2.58-3.2,4.89-3.19,3.64.05,3.89.97,6.39,4.22h0Zm52.37-4.2c3.2,0,6.2,2.45,7.4,5.98,1.29,3.78.1,7.13-2.8,9.85-.64.61-1.82,1.35-1.82,1.35l4,5.78c.37.53.48,1.58.14,2.48-.32.84-.73,1.33-1.56,1.69-1.12.48-2.59.04-3.06-.55,0,0-3.83-4.7-5.95-7.37-.37-.39-.57-.76-.96-1.16l-10.2.05c-2.53.01-5.52-3.04-5.52-5.47v-.94l19-.02c.71,0,1.51-.67,1.9-1.55.35-.79.35-1.43,0-2.22-.42-.95-1.35-1.62-2.09-1.62l-20.67.06-.06.21v18.56c0,1.24-1.69,2.83-3.35,2.67-1.53-.14-2.79-1.72-2.78-2.81l.02-19.68c0-2.05.59-2.85,1.88-3.97,1.25-1.1,2.38-1.34,4.04-1.34l22.43.02h0Z" fill="#fff" fill-rule="evenodd" stroke-width="0"/>
      </g>
      <rect width="300" height="100" fill="none" stroke-width="0"/>
    </g>
  </g>
</svg>