<svg width="111" height="29" viewBox="0 0 111 29" fill="none" xmlns="http://www.w3.org/2000/svg">
<path d="M46.0437 21.7998H43.1082V28.4741H44.2805V25.9818H46.0437C47.4381 25.9818 48.2275 25.0236 48.2275 23.8908C48.2275 22.7579 47.4476 21.7998 46.0437 21.7998ZM45.883 24.9528H44.2805V22.8335H45.883C46.5447 22.8335 47.0269 23.2536 47.0269 23.8955C47.0269 24.5375 46.5447 24.9575 45.883 24.9575V24.9528ZM26.2518 21.6912C24.2475 21.6912 22.8342 23.1497 22.8342 25.1416C22.8342 27.1335 24.2475 28.5921 26.2518 28.5921C28.256 28.5921 29.6694 27.1335 29.6694 25.1416C29.6694 23.1497 28.256 21.6912 26.2518 21.6912ZM26.2518 27.5536C24.8999 27.5536 24.0395 26.5152 24.0395 25.1416C24.0395 23.7681 24.8999 22.7296 26.2518 22.7296C27.6037 22.7296 28.464 23.7586 28.464 25.1416C28.464 26.5246 27.5943 27.5536 26.2518 27.5536ZM38.9296 23.8908C38.9296 22.6588 38.0692 21.7998 36.7457 21.7998H33.8102V28.4741H34.9825V25.9818H36.1454L37.6296 28.4741H38.9816L37.3507 25.8544C38.1543 25.7222 38.9343 25.085 38.9343 23.8955L38.9296 23.8908ZM34.9825 24.9528V22.8335H36.585C37.2467 22.8335 37.7289 23.2536 37.7289 23.8955C37.7289 24.5375 37.2467 24.9575 36.585 24.9575H34.9825V24.9528ZM16.5 22.7296C17.2232 22.7296 17.8614 23.1497 18.1828 23.702L19.1849 23.1922C18.6839 22.3898 17.8519 21.6912 16.5 21.6912C14.5241 21.6912 12.9926 23.0931 12.9926 25.1416C12.9926 27.1902 14.5241 28.5921 16.5 28.5921C17.8519 28.5921 18.6744 27.8935 19.1849 27.0911L18.1828 26.5813C17.8614 27.143 17.2232 27.5536 16.5 27.5536C15.1765 27.5536 14.1932 26.5435 14.1932 25.1416C14.1932 23.7397 15.1765 22.7296 16.5 22.7296ZM80.8532 22.8288H82.8764V28.4693H84.0487V22.8288H86.0718V21.7998H80.8532V22.8288ZM90.0708 28.4693H94.6513V27.4403H91.2431V25.59H94.5804V24.5611H91.2431V22.8288H94.6513V21.7998H90.0708V28.4741V28.4693ZM74.1078 21.795L71.4843 28.4693H72.8173L73.3089 27.1902H76.3767L76.8684 28.4693H78.2014L75.5779 21.795H74.1172H74.1078ZM73.6351 26.1565L74.8358 22.9751L76.0364 26.1565H73.6304H73.6351ZM68.0005 23.8861C68.0005 22.6541 67.1402 21.795 65.8167 21.795H62.8812V28.4693H64.0535V25.9771H65.2163L66.7006 28.4693H68.0525L66.4217 25.8497C67.2253 25.7175 68.0053 25.0803 68.0053 23.8908L68.0005 23.8861ZM64.0535 24.9481V22.8288H65.6559C66.3177 22.8288 66.7999 23.2488 66.7999 23.8908C66.7999 24.5327 66.3177 24.9528 65.6559 24.9528H64.0535V24.9481ZM55.3228 21.6865C53.3185 21.6865 51.9051 23.145 51.9051 25.1369C51.9051 27.1288 53.3185 28.5874 55.3228 28.5874C57.327 28.5874 58.7404 27.1288 58.7404 25.1369C58.7404 23.145 57.327 21.6865 55.3228 21.6865ZM55.3228 27.5489C53.9708 27.5489 53.1105 26.5105 53.1105 25.1369C53.1105 23.7633 53.9708 22.7249 55.3228 22.7249C56.6747 22.7249 57.535 23.7539 57.535 25.1369C57.535 26.5199 56.6652 27.5489 55.3228 27.5489ZM106.18 1.05937L102.801 7.04453L99.4208 1.05937H95.0342L100.886 11.4296V18.0331H104.71V11.4296L110.562 1.06408H106.176L106.18 1.05937ZM14.6707 7.7148C14.6707 4.06139 11.6927 1.08297 8.02924 1.08297H3.98294L0.158813 4.90158V10.764C0.158813 14.7573 3.41098 18.0095 7.41474 18.0095C11.4185 18.0095 14.6707 14.762 14.6707 10.764V7.7148ZM10.8465 10.764C10.8465 12.6521 9.30554 14.1909 7.41474 14.1909C5.52395 14.1909 3.98294 12.6521 3.98294 10.764V4.90158H8.02924C9.58442 4.90158 10.8465 6.16186 10.8465 7.7148V10.764ZM41 7.03981L37.6202 1.05465H33.2335L39.0856 11.4248V18.0283H42.9097V11.4248L48.7617 1.05937H44.3751L40.9953 7.03981H41ZM77.1992 12.9967C77.1992 10.561 75.923 9.07892 72.978 8.07825C69.9197 7.03037 69.2579 6.66692 69.2579 5.77953C69.2579 4.89214 70.0804 4.3446 71.3331 4.3446C72.5195 4.3446 73.2475 4.77885 73.6824 5.75593C73.7486 5.90225 73.8053 6.10522 73.8053 6.10522L77.1614 4.97238C77.1614 4.97238 77.0811 4.73166 77.0385 4.59477C76.2397 2.22525 74.1882 0.950806 71.2432 0.950806C67.7547 0.950806 65.3818 3.23064 65.3818 5.86921C65.3818 8.50778 66.729 9.97103 70.3309 11.2219C72.7275 12.0432 73.2948 12.4066 73.2948 13.2468C73.2948 14.1578 72.3824 14.7714 70.9927 14.7714C69.4659 14.7714 68.6198 14.2239 68.3456 12.9967C68.3125 12.8503 68.2652 12.5388 68.2652 12.5388C68.2652 12.5388 67.958 12.6379 67.7784 12.6993L64.824 13.6622C64.824 13.6622 64.8949 13.9454 64.928 14.0634C65.6559 16.7492 67.7122 18.1652 71.04 18.1652C74.6892 18.1652 77.1992 15.909 77.1992 12.9967ZM58.1353 8.07825C55.0769 7.03037 54.4152 6.66692 54.4152 5.77953C54.4152 4.89214 55.2377 4.3446 56.4903 4.3446C57.6768 4.3446 58.4048 4.77885 58.8396 5.75593C58.9058 5.90225 58.9625 6.10522 58.9625 6.10522L62.3187 4.97238C62.3187 4.97238 62.2383 4.73166 62.1958 4.59477C61.3969 2.22525 59.3454 0.950806 56.4005 0.950806C52.912 0.950806 50.539 3.23064 50.539 5.86921C50.539 8.50778 51.8862 9.97103 55.4882 11.2219C57.8848 12.0432 58.452 12.4066 58.452 13.2468C58.452 14.1578 57.5397 14.7714 56.15 14.7714C54.6232 14.7714 53.777 14.2239 53.5029 12.9967C53.4698 12.8503 53.4225 12.5388 53.4225 12.5388C53.4225 12.5388 53.1152 12.6379 52.9356 12.6993L49.9813 13.6622C49.9813 13.6622 50.0522 13.9454 50.0852 14.0634C50.8132 16.7492 52.8694 18.1652 56.1972 18.1652C59.8465 18.1652 62.3565 15.909 62.3565 12.9967C62.3565 10.561 61.0802 9.07892 58.1353 8.07825ZM92.0562 14.1956H84.5402V11.4673H92.0562V7.64871H84.5402V4.90158H92.0562V1.08297H80.7209V18.0047H92.0562V14.1861V14.1956ZM25.5664 1.08769H18.1923V18.0095H25.5664C29.0549 18.0095 31.8958 15.1774 31.8958 11.6892V7.40327C31.8958 3.91979 29.0549 1.08297 25.5664 1.08297V1.08769ZM28.0717 11.6939C28.0717 13.0722 26.9466 14.1956 25.5664 14.1956H22.0117V4.9063H25.5664C26.9466 4.9063 28.0717 6.0297 28.0717 7.40798V11.6939Z" fill="white"/>
</svg>
