<svg height="63" viewBox="0 0 88 63" width="88" xmlns="http://www.w3.org/2000/svg" xmlns:xlink="http://www.w3.org/1999/xlink"><mask id="a" fill="#fff"><path d="m.0000412.09710487h12.7201748v24.34733953h-12.7201748z" fill="#fff" fill-rule="evenodd"/></mask><mask id="b" fill="#fff"><path d="m.07584644.05810362h3.35602996v24.52366918h-3.35602996z" fill="#fff" fill-rule="evenodd"/></mask><mask id="c" fill="#fff"><path d="m.07399251.05810362h13.90095129v24.52366918h-13.90095129z" fill="#fff" fill-rule="evenodd"/></mask><g fill="none" fill-rule="evenodd"><path d="m0 0 88 25.0683134v37.2238214h-88z" fill="#000"/><g fill="#fff"><path d="m11.042201 24.4444582h-9.36277154c-.94179775 0-1.67938826-.8041948-1.67938826-1.6781523v-20.9953059c0-1.11675406.84182272-1.67389513 1.67938826-1.67389513.83632959 0 1.64052435.55714107 1.64052435 1.67389513v19.3534082h7.72224719c1.1182647 0 1.678015.8418228 1.678015 1.6781523 0 .8029589-.5597503 1.6418977-1.678015 1.6418977" mask="url(#a)" transform="translate(7.910112 29.879488)"/><path d="m34.2614707 32.1418077-5.2758802 12.6799376v7.8595755c0 1.1197753-.8377029 1.642035-1.6766417 1.642035-.8405868 0-1.6781523-.5222597-1.6781523-1.642035v-7.8595755l-5.2745069-12.6799376c-.1069787-.1737203-.1403495-.4209113-.1403495-.6654931 0-.943171.6626092-1.6752684 1.7461298-1.6752684.5987516 0 1.1891261.3153059 1.5030587 1.0489138l3.8438202 9.2529089 3.8436829-9.2529089c.3137953-.7336079.908427-1.0489138 1.4988015-1.0489138 1.0848939 0 1.7502497.7320974 1.7502497 1.6752684 0 .2445818-.0373533.4195381-.1402122.6654931"/><path d="m49.2250961 36.8215593c0-1.9558302-1.4309613-3.4934956-3.3534207-3.4934956h-4.124382v7.2664544h4.1591261c1.9225967 0 3.3186766-1.539176 3.3186766-3.4590262zm-1.0848939 6.7777029 3.9838952 8.3472284c.1389763.2805618.172347.5250063.172347.7347067 0 .9433083-.6973533 1.6420349-1.7795006 1.6420349-.5598876 0-1.1168914-.2430712-1.4321972-.9056804l-4.5062922-9.504357h-2.831161v8.7680025c0 1.1197752-.8000749 1.6420349-1.6418976 1.6420349-.872447 0-1.7113858-.5222597-1.7113858-1.6420349v-20.9951686c0-.8697004.8043321-1.6738951 1.678015-1.6738951h5.6969288c3.7700749 0 6.810799 3.0366042 6.810799 6.8094257v.3139326c0 3.0033708-1.7822472 5.5538327-4.4395506 6.4637703z"/><path d="m1.75248814 24.5817865c-.83632959 0-1.6766417-.5236329-1.6766417-1.6418976v-21.20514358c0-1.11826467.84031211-1.6766417 1.6766417-1.6766417.84182272 0 1.67938826.55837703 1.67938826 1.6766417v21.20514358c0 1.1182647-.83756554 1.6418976-1.67938826 1.6418976" mask="url(#b)" transform="translate(57.348315 29.74216)"/><path d="m7.19735081 24.5817865h-.31393258c-3.77556804 0-6.80942572-2.8657678-6.80942572-6.6760799v-11.17701621c0-3.77007491 3.03385768-6.67058677 6.80942572-6.67058677h.31393258c3.39077399 0 6.77770289 2.447603 6.77770289 5.83164794v.10835206c0 1.08200999-.5947691 1.81410737-1.7128964 1.81410737-.9419351 0-1.3960799-.55425718-1.6418976-1.43219726-.3139326-1.71001248-1.60454434-3.00611735-3.42290889-3.00611735h-.31393258c-1.95583022 0-3.45614232 1.40157303-3.45614232 3.32293383v11.24485639c0 1.9587141 1.53505617 3.354794 3.45614232 3.354794h.31393258c1.81836455 0 3.10897629-1.2904744 3.42290889-3.004744.2458177-.8723096.6999625-1.430824 1.6418976-1.430824 1.1181273 0 1.7128964.7349813 1.7128964 1.8171286v.1054682c0 3.4213982-3.3869289 5.7982771-6.77770289 5.7982771" mask="url(#c)" transform="translate(65.588015 29.74216)"/></g></g></svg>