<svg fill="none" height="95" viewBox="0 0 110 95" width="110" xmlns="http://www.w3.org/2000/svg"><g fill="#282652"><path d="m53.0028 59.3584-.1772.0516v.6023h8.106v-26.5167h-8.106v.5991l.1708.0547c1.0088.3285 1.5438 2.042 1.5438 4.9504v15.3083c0 2.9406-.5318 4.6508-1.5374 4.9471z"/><path d="m71.6202 41.3584.0967.2512.5222-.2609-.3321-7.7242h-9.3897v.7441l1.6826.1804c1.7568.2126 3.2363.8664 4.3967 1.9423 1.1733 1.0855 2.1887 2.725 3.0203 4.8671z"/><path d="m62.5207 60.0134h10.4083l.809-7.6211.0194-.1707-.5158-.2577-.1096.2222c-.9476 1.9262-2.1854 3.5464-3.6778 4.8091-1.4796 1.253-3.001 1.9423-4.5257 2.0551l-2.4078.2126z"/><path d="m90.9453 49.3779-.6865 1.5749 7.8578.174 1.2119 3.2594c.2933.7762.4835 1.4751.5673 2.0742.0805.5797.0676 1.0661-.0355 1.4461-.0999.3672-.2611.6635-.4802.8793-.2192.219-.5093.38-.8574.4799l-.2449.0708v.7666h11.6092v-.7633l-.241-.0709c-.345-.0998-.648-.2738-.903-.5153-.187-.174-.516-.583-1.044-1.5492-.432-.7923-.945-1.9325-1.518-3.3915l-7.8936-20.1943-.0838-.2158h-3.5324l-1.6728 4.0872 4.5542 11.7236-6.6041.1643z"/><path d="m74.2337 48.3215c1.3054-.0064 2.4334-.0161 3.1683-.0354.3449 0 .6349-.0096.8702-.0193l4.1707 11.8814h8.2446v-.8374l-.2708-.0837c-.319-.0966-1.0346-.6377-2.211-3.1467l-3.1715-6.5994-.0934-.1417-.1451-.0354c-1.6373-.4058-3.0812-.8278-4.306-1.2593 2.1047-.3543 3.8258-1.05 5.1311-2.0742 1.6083-1.2626 2.4205-2.9019 2.4205-4.8795 0-2.3061-.9701-4.1677-2.8846-5.5301-1.8758-1.3366-4.6477-2.0194-8.2446-2.0291h-.3835v1.0049l.3416.0354c1.3956.1482 2.485.7569 3.236 1.8101.7703 1.079 1.1603 2.6636 1.1603 4.712 0 1.3077-.1741 2.422-.5061 3.2949-.8476 1.8133-2.8169 2.8729-5.2922 2.8375h-.0806-1.1539l-1.6985-.0354c-1.3763-.0323-2.4463-.3092-3.1812-.8246-.7252-.5088-1.2634-1.269-1.5986-2.2577l-.0935-.2802h-.8831v8.4191h.8928l.087-.2931c.3384-1.1466.8863-2.0323 1.6276-2.6411.7349-.599 1.7921-.9211 3.1457-.9533l1.6696-.0354h.0322z"/><path d="m63.9842 90.2046c-.6801-1.5524-1.0153-4.0292-1.0024-7.3659l.0451-10.1519c.0065-1.5975.1548-2.7956.4416-3.5654.2675-.7215.6575-1.1659 1.1603-1.3205l.1708-.0548v-.5958l-9.4145-.0419h-.245v.5926l.1676.058c.9798.3285 1.4891 2.0259 1.4762 4.902l-.0452 10.1519c-.029 6.754 3.4745 10.4063 10.4105 10.8605l.2611.0161v-.7408l-.1966-.0387c-1.4826-.2898-2.572-1.1981-3.2295-2.7054z"/><path d="m79.7294 67.8006v-.5057l-6.9521-.0322h-.1998v.3543l.0129.1578.1547.0258c.6833.1095 1.3537.7182 1.995 1.8133.6543 1.1176.9831 2.5315.9734 4.2031l-.0387 8.8056c-.0129 2.918-.5962 5.3207-1.7372 7.1469-1.1281 1.8068-2.688 2.8794-4.6541 3.195l-.1547.0225v.4671l.0161.2093.2095-.029c2.2852-.3188 4.1255-1.4815 5.4695-3.4559 1.3344-1.9582 2.0209-4.4994 2.0338-7.5527l.0387-8.8056c.0064-1.649.3255-3.0597.9476-4.1902.5962-1.0887 1.1925-1.7103 1.734-1.8004l.1514-.0258z"/><path d="m102.939 78.8965c-.696.4897-1.712.7506-3.0269.7763l-1.4989.0419-.0064 1.224 1.5021.058c1.2861.0386 2.2881.3511 2.9781.9277.7.5862 1.216 1.4462 1.535 2.5575l.103.3511h1.028l.035-7.9786v-.4542l-1.012-.0032-.112.335c-.32.9502-.832 1.6814-1.522 2.1645z"/><path d="m108.952 85.6563c-.918 1.8777-2.114 3.4495-3.551 4.6766-1.412 1.2013-2.856 1.8616-4.297 1.9647l-2.8425.2125-.0064 1.1337 10.8359.0483.873-8.0229-.815-.4187-.2.409z"/><path d="m35.5312 12.4423c-.6832.6474-1.5567.8342-2.0208.9308-.5705.1127-.9992.1256-1.0121.1256l-3.2037.1868.954 1.0146 3.7743-.0322 4.1899 11.4949.0806.2223h8.3768v-.7666l-.245-.0708c-.3384-.0999-1.0829-.641-2.3045-3.1371l-3.2585-6.5349-.087-.1224-.1257-.029c-1.7469-.4155-3.2811-.8503-4.5736-1.298 2.2207-.3414 4.0321-1.0339 5.3955-2.0677 1.6405-1.24 2.472-2.85685 2.472-4.80543 0-2.27064-.9927-4.10649-2.9491-5.44955-1.9145-1.314079-4.754-1.987221-8.4347-2.000104h-.3417v.924364l.3062.02899c1.4536.14815 2.5849.7601 3.3649 1.81329.7961 1.07252 1.199 2.6507 1.199 4.68301s-.4093 3.49773-1.2151 4.49943c-.1096.1353-.2256.2673-.3449.3865z"/><path d="m67.9388 2.5541c.7704.79553 2.0145 2.30607 3.7001 4.48654l14.8648 19.16036.0741.0967h2.1337v-7.5817l-14.4168-18.445436-.0548-.070857h-8.728v.57974l.145.067636c.7607.351067 1.5277.927587 2.2819 1.707017z"/><path d="m85.9555 1.79399c.4416.39938.809 1.02099 1.0894 1.85195.2869.84706.4512 1.95179.4835 3.28519l.2449 7.97147v.0579l.7671 1.0371.1128-9.06969c.0129-1.91636.2804-3.34639.7961-4.2482.506-.88572 1.2441-1.49767 2.1917-1.819744l.1708-.057974v-.602285h-7.7901v.605506l.1772.054753c.7188.215794 1.3086.531424 1.7534.934024z"/><path d="m105.862 22.7486c2.746-2.2546 4.138-5.4464 4.138-9.4884 0-4.04212-1.408-7.279-4.183-9.54965-2.759-2.25776-6.7463-3.439789-11.8517-3.507425h-.2546v.769766h.2482c1.099.012883 2.1208.154599 3.0297.421919.9024.26411 1.7597.70535 2.5429 1.30764.7865.60228 1.4565 1.37205 1.9955 2.28997.544.92436.976 2.09673 1.289 3.48166.312 1.3946.474 3.00502.474 4.78612 0 3.9937-.79 7.0535-2.344 9.089-1.5401 2.0194-3.893 3.1016-6.9936 3.2111l-.2417.0097v.7343l.2546-.0064c5.1634-.116 9.1627-1.3109 11.8927-3.5493z"/><path d="m19.7871 2.79562c1.1959 1.26911 2.3338 3.17277 3.391 5.65624l.5126 1.20469-.2031-7.84337v-.13528l-.1225-.07087c-.548-.32533-1.5795-.657099-3.0622-.98565-1.4892-.328552-3.001-.5314808-4.4966-.6055659l-.2611-.01288441v.52181731l.2127.032211c1.4924.231918 2.8495.982432 4.0292 2.238662z"/><path d="m18.668 15.7273c.4609.7666.6962 2.013.6962 3.7103 0 2.0259-.3062 3.5751-.9057 4.6058-.5801.9887-1.4955 1.6265-2.717 1.8938l-.1966.0418v.4864l.2675-.0226c1.2022-.0966 2.3786-.2995 3.497-.6055 1.1184-.3027 2.0144-.6312 2.6848-.9855l3.4261 1.5266-.1031-.4799c-.1708-.7858-.2869-1.5814-.3481-2.3608-.0645-.8245-.0967-2.203-.0967-4.1033 0-2.86.4674-4.4833 1.4246-4.9632l.9379-.4702h-12.0414l1.8114.4895c.7252.1965 1.2828.612 1.6599 1.2368z"/><path d="m6.41712 24.7485c1.94351 1.0564 4.17068 1.6297 6.63948 1.7037l.2353-.0225v-.4638l-.2288-.0193c-1.9854-.1675-3.59051-1.3495-4.77015-3.5139-1.21187-2.2255-1.82426-5.311-1.82426-9.176 0-3.86491.61239-6.73141 1.82426-8.96018 1.17964-2.17725 2.79115-3.433352 4.78625-3.739326l.2127-.032207v-.524987l-.2643.0161039c-2.4592.1642601-4.68631.7890901-6.62015 1.8616061-1.97251 1.09507-3.54859 2.64426-4.68956 4.60571-1.140961 1.9679-1.71789 4.24498-1.71789 6.77328s.576929 4.8859 1.71789 6.8732c1.14097 1.9872 2.72349 3.5396 4.69923 4.6153z"/><path d="m55.3594 20.7289c.2933.7698.4866 1.4623.5704 2.0581.0806.5798.071 1.0693-.0354 1.4526-.1031.3736-.274.6763-.5028.9018s-.5318.3929-.896.496l-.1805.0515v.6088h18.9903v-.6055l-.1773-.0548c-1.0249-.3124-1.8017-.9147-2.3077-1.7907-.5189-.8986-.8025-2.3351-.8477-4.2772l-.2449-12.10694v-.05797l-.7671-1.08541-.1676 13.24702c-.0226 1.3206-.1773 2.4285-.4577 3.2917-.2772.8503-.622 1.4751-1.0249 1.8648-.4093.3897-.9315.6989-1.5567.9147l-.0838.029-.1129-.0322c-.3545-.1031-.6704-.2802-.9379-.5282-.2771-.2545-.6317-.773-1.0604-1.5428-.4351-.7826-.9475-1.9067-1.5212-3.3431l-7.8869-19.862575-.0612-.157818h-3.4068l-1.6373 3.935793 4.609 11.9716-6.8329.1707-.5608 1.1241 7.9126.1739 1.1925 3.1531z"/><path d="m27.0092 41.2774c-.622-1.6298-1.4955-3.034-2.6042-4.1774-1.1055-1.1402-2.4399-2.0645-3.9612-2.7505-1.5213-.6828-3.2101-1.1015-5.0247-1.2433l-.2643-.0193v.715l.203.0355c1.7953.3091 3.2392 1.562 4.2932 3.7232 1.0732 2.1998 1.6179 5.2531 1.6179 9.0729s-.5447 6.8474-1.6179 9.0665c-1.054 2.1772-2.4979 3.4527-4.2964 3.7844l-.1998.0387v.715l.2643-.0194c1.8017-.1417 3.4906-.5636 5.0151-1.2528 1.5277-.6893 2.8653-1.6201 3.9708-2.7667s1.9822-2.5573 2.6042-4.1934c.6189-1.633.9315-3.4398.9315-5.3659 0-1.926-.3126-3.7328-.9315-5.3593z"/><path d="m6.39136 58.2345c1.88227 1.1272 4.06424 1.7907 6.49124 1.9807l.2643.0194v-.7151l-.1998-.0354c-1.8082-.3317-3.25854-1.6039-4.31249-3.7747-1.07328-2.2127-1.61797-5.266-1.61797-9.073 0-3.8069.53825-6.8731 1.59864-9.0729 1.04105-2.1611 2.46882-3.4108 4.24152-3.7232l.2031-.0354v-.7151l-.2643.0194c-1.8017.1417-3.48736.5604-5.00865 1.2432-1.52451.6828-2.85241 1.6104-3.9547 2.7505-1.10229 1.1434-1.97252 2.5477-2.59457 4.1774-.618829 1.6265-.931467 3.4301-.931467 5.3594 0 2.5766.544698 4.8955 1.617977 6.8892 1.07651 1.9969 2.57845 3.5815 4.46717 4.712z"/><path d="m38.5095 57.932c-.3158-.8599-.4737-2.3254-.4737-4.3577v-20.0557h-8.1061v.599l.1709.0548c1.0088.3285 1.5438 2.0419 1.5438 4.9503v15.3084c0 2.9405-.5318 4.6508-1.5342 4.9471l-.1772.0515v.6023h10.1849v-.6152l-.1902-.0451c-.6446-.1546-1.1216-.6377-1.4149-1.4429z"/><path d="m42.5735 49.1718c-.6801.5217-1.56.8245-2.6107.9018l-.2289.0161v.7536h.2482c3.6743-.0128 6.5364-.8052 8.5089-2.3576 1.9274-1.517 2.9362-3.6555 2.9975-6.3674-.0613-2.7023-1.0669-4.8409-2.9975-6.3579-1.9725-1.5524-4.8378-2.3447-8.5089-2.3576h-.2482v.7537l.2289.0161c1.0507.0773 1.9306.3801 2.6107.9018.68.5186 1.2215 1.3849 1.6115 2.5702.3803 1.1563.5802 2.6636.5963 4.4769-.0161 1.8197-.2192 3.327-.5963 4.4801-.39 1.1852-.9315 2.0484-1.6115 2.5702z"/><path d="m34.9026 68.1874c-1.489.6699-2.7879 1.5814-3.8644 2.7054-1.0765 1.1241-1.9339 2.5122-2.5462 4.1194-.6092 1.6072-.9251 3.3883-.9315 5.2982-.0097 2.5508.5092 4.844 1.5471 6.8216 1.041 1.9808 2.4978 3.5557 4.3318 4.683 1.8307 1.124 3.9547 1.7907 6.3204 1.9872l.2643.0226v-.7118l-.1966-.0387c-1.7566-.3349-3.1651-1.5975-4.1803-3.7522-1.0346-2.1933-1.5535-5.2176-1.5374-8.9827.0161-3.778.5543-6.7959 1.5986-8.9699 1.0217-2.1322 2.4173-3.3625 4.1416-3.662l.2031-.0355v-.715l-.2611.0194c-1.7565.132-3.4003.5378-4.8861 1.2077z"/><path d="m53.6095 75.1153c-.5963-1.6136-1.444-3.0082-2.5172-4.1452-1.0733-1.1337-2.369-2.0548-3.8516-2.7376-1.4794-.6828-3.1264-1.1048-4.8926-1.2529l-.2643-.0226v.715l.1998.0355c1.7469.3124 3.1457 1.5588 4.161 3.6974 1.0346 2.1837 1.5535 5.2048 1.5374 8.9828-.0161 3.7554-.5608 6.77-1.6148 8.9602-1.0346 2.1482-2.4463 3.4011-4.1964 3.7232l-.1998.0354v.7118l.261-.0193c1.7566-.1321 3.4036-.5411 4.8959-1.2175 1.4955-.6763 2.8008-1.591 3.8838-2.7215 1.0829-1.1305 1.9435-2.5219 2.5526-4.1387.6092-1.6136.9251-3.3979.9315-5.3046.0097-1.9067-.2901-3.6943-.8863-5.3047z"/><path d="m1.55038 67.1045v.5958l.16438.058c.97981.3285 1.48905 2.0259 1.47938 4.902l-.06446 15.1441c-.01289 2.9084-.53503 4.5961-1.51484 4.8859l-.17404.0516v.6023l9.4146.0418h.2449v-.6055l-.1805-.0515c-1.02812-.2899-1.56315-1.9808-1.55026-4.8988l.06446-15.1441c.00645-1.5975.15148-2.8021.42867-3.5783.25783-.7214.64143-1.1627 1.13773-1.3076l.1741-.0516v-.6022l-9.38239-.0419h-.24495z"/><path d="m17.1821 67.1048v.5958l.1676.0548c1.012.3317 1.5406 2.0258 1.5277 4.902l-.029 6.3739-6.6169.1804-.2224.058v.1095l-.4867.7794 7.3196.161-.0322 7.4787c-.0129 2.9083-.5544 4.596-1.5632 4.8859l-.1773.0515v.6023l9.4146.0419h.2449v-.6023l-.1772-.0515c-1.0089-.2996-1.5342-1.9937-1.5213-4.8988l.0644-15.1441c.0129-2.8762.5447-4.5671 1.5374-4.8892l.1676-.0547v-.5959l-9.3791-.0418h-.2449z"/><path d="m108.676 74.9764.174.467.838-.4219-.303-7.9682-6.108-.0258-10.6715-.0129h-.4641v1.3528h9.0856c.487.0193 1.215.0902 1.928.3027 1.012.3253 1.904.8471 2.652 1.5589 1.115 1.0596 2.082 2.6571 2.872 4.7506z"/><path d="m95.7965 81.821c-.5221-.583-1.1281-1.1305-1.7985-1.6297-.6671-.496-1.3827-.9501-2.1272-1.3431-.7252-.3833-1.4729-.7698-2.2207-1.1434-.7381-.3704-1.4407-.7568-2.0885-1.1498-.6447-.3897-1.2248-.8116-1.7276-1.2496-.4867-.4284-.8799-.9405-1.17-1.5267-.2836-.5797-.4286-1.2271-.4254-1.9228 0-.7021.1515-1.3495.4415-1.9131.6156-1.1048 1.8694-1.6265 2.5592-1.8391l.1289-.0386v-.8117l-.2643.0226c-2.3625.19-4.3125.9887-5.7983 2.3801-1.4955 1.3978-2.2594 3.1306-2.269 5.15-.0033.9341.145 1.8101.4383 2.6024.2965.7923.7026 1.4816 1.2119 2.0517.4995.5572 1.0797 1.0854 1.7211 1.5685.6381.4799 1.3214.9147 2.0337 1.298.7091.38 1.4214.7568 2.1176 1.1176.6994.3607 1.3698.7472 1.9918 1.1466.6189.3961 1.1732.8213 1.6535 1.2657.4673.4316.8412.9502 1.1119 1.5331.2708.583.4061 1.2304.4029 1.926 0 .7118-.1515 1.3624-.4351 1.9261-1.1249 1.897-4.0901 2.5218-6.7427 1.4235-1.995-.9243-3.1876-2.4091-3.2391-2.4703l-.2256-.2834-.3868.6699.1128.1321c.4802.5668 3.0716 3.4011 6.9425 3.4011.2095 0 .4351-.0097.6736-.029h.0258c2.7589-.1771 4.9603-.9018 6.5396-2.1515 1.6824-1.3301 2.5397-3.079 2.5494-5.1951.0032-.992-.1515-1.9196-.4641-2.757s-.7413-1.562-1.2731-2.1547z"/></g></svg>