<?xml version="1.0" encoding="UTF-8"?>
<svg id="b" data-name="Layer 2" xmlns="http://www.w3.org/2000/svg" viewBox="0 0 134.33 44.56">
  <g id="c" data-name="Layer 1">
    <path d="m31.63,11.01s6.76-14.3-15.02-5.56l1.76,3.15-7.72-.94L13.29.27l1.72,2.85s25.08-10.84,16.62,7.88Z" fill="#fff" stroke-width="0"/>
    <path d="m10.54,9.28s-17,14.65-1.45,15.69c0,0-20.43-.36-.04-18.08l-.65,1.89,2.13.5Z" fill="#9fcc41" stroke-width="0"/>
    <g>
      <path d="m30,34.92c-.42.93-1.01,1.72-1.78,2.37-.77.65-1.69,1.14-2.76,1.47-1.08.34-2.27.5-3.59.5-.67,0-1.41-.07-2.23-.2-.81-.13-1.52-.33-2.12-.59l-.47-4.59c.55.3,1.15.54,1.81.71.66.17,1.33.26,2.03.26.53,0,1.03-.07,1.51-.2.48-.13.9-.33,1.27-.59.37-.26.66-.6.88-1.02.21-.42.32-.9.32-1.45,0-.88-.35-1.62-1.04-2.2-.69-.58-1.53-.88-2.51-.88-.12,0-.22,0-.31.02-.08.01-.21.03-.38.05l-.86-3.83c1-.19,1.85-.53,2.55-1.02.69-.49,1.04-1.07,1.04-1.74,0-.57-.21-1.03-.63-1.38-.42-.35-.96-.52-1.63-.52-.62,0-1.2.08-1.72.25-.53.17-1.04.39-1.54.68l-1-4.41c.62-.33,1.36-.61,2.23-.82.86-.22,1.78-.32,2.76-.32,1.08,0,2.05.13,2.91.4.86.26,1.6.63,2.21,1.11.61.48,1.08,1.06,1.4,1.74.32.68.48,1.43.48,2.24,0,.6-.1,1.14-.29,1.63-.19.49-.44.92-.75,1.29-.31.37-.66.68-1.06.93-.39.25-.78.43-1.17.52.6.14,1.2.38,1.81.72.61.34,1.15.77,1.63,1.31.48.54.87,1.17,1.17,1.9.3.73.45,1.55.45,2.46,0,1.2-.21,2.26-.63,3.19Z" fill="#fff" stroke-width="0"/>
      <path d="m48.86,34.73c-.43.98-1.02,1.81-1.78,2.49-.75.68-1.64,1.21-2.65,1.58-1.02.37-2.1.56-3.25.56s-2.19-.19-3.2-.57c-1-.38-1.88-.94-2.64-1.67-.75-.73-1.34-1.63-1.78-2.71-.43-1.08-.65-2.31-.65-3.7,0-1.53.24-3.05.72-4.56.48-1.51,1.15-2.94,2.01-4.3.86-1.36,1.88-2.63,3.07-3.79,1.18-1.16,2.48-2.16,3.89-3l5.35,1.69c-1.94,1.03-3.61,2.19-5.01,3.48-1.4,1.29-2.51,2.73-3.32,4.3.38-.19.79-.33,1.24-.43.44-.1.94-.14,1.49-.14.86,0,1.72.17,2.57.5.85.33,1.61.82,2.3,1.45.68.63,1.23,1.42,1.65,2.35.42.93.63,2,.63,3.19s-.21,2.29-.64,3.27Zm-5.26-5.41c-.61-.62-1.38-.93-2.31-.93-.67,0-1.32.17-1.94.5-.62.34-1.06.92-1.33,1.76v.75c0,.53.1,1.01.29,1.45.19.44.44.83.75,1.15.31.32.67.58,1.08.75.41.18.82.27,1.26.27.81,0,1.54-.3,2.17-.9.63-.6.95-1.4.95-2.41s-.31-1.78-.91-2.4Z" fill="#fff" stroke-width="0"/>
      <path d="m67.45,32.69c-.43,1.51-1.02,2.76-1.78,3.75-.75.99-1.63,1.73-2.62,2.21-.99.48-2.05.72-3.18.72s-2.19-.24-3.19-.72c-1-.48-1.89-1.21-2.64-2.21-.75-.99-1.34-2.24-1.78-3.75-.43-1.51-.65-3.29-.65-5.35s.22-3.8.65-5.31c.43-1.51,1.02-2.76,1.78-3.75.75-.99,1.63-1.73,2.64-2.21,1-.48,2.07-.72,3.19-.72s2.18.24,3.18.72c.99.48,1.87,1.21,2.62,2.21.75.99,1.35,2.24,1.78,3.75.43,1.51.64,3.28.64,5.31s-.22,3.84-.64,5.35Zm-5.46-10.96c-.6-1.23-1.31-1.85-2.12-1.85s-1.52.62-2.12,1.87c-.6,1.24-.9,3.11-.9,5.6s.3,4.41.9,5.63c.6,1.22,1.3,1.83,2.12,1.83s1.52-.61,2.12-1.83c.6-1.22.9-3.1.9-5.63s-.3-4.38-.9-5.62Z" fill="#fff" stroke-width="0"/>
      <g>
        <path d="m81.11,38.13c-.92.84-2.28,1.26-4.1,1.26-.84,0-1.63-.1-2.38-.31-.75-.21-1.35-.45-1.79-.71l-.35-3.38c.61.42,1.29.76,2.04,1.03.75.26,1.5.4,2.25.4.65,0,1.17-.14,1.54-.41.37-.27.56-.63.56-1.08s-.14-.78-.43-1.05c-.29-.26-.78-.49-1.48-.68-1.46-.4-2.54-1-3.23-1.78-.69-.78-1.04-1.74-1.04-2.88,0-.62.11-1.2.34-1.74.23-.54.55-1.01.98-1.41.43-.4.96-.72,1.58-.96.63-.23,1.35-.35,2.16-.35.85,0,1.61.1,2.27.29.66.19,1.15.38,1.46.55l-.65,2.91c-.31-.17-.73-.34-1.27-.51s-1.05-.26-1.57-.26c-.64,0-1.11.12-1.41.37-.3.25-.44.55-.44.91s.15.67.46.89.75.41,1.32.58c1.44.4,2.55.99,3.36,1.76.8.77,1.21,1.81,1.21,3.14,0,1.45-.46,2.59-1.38,3.43Z" fill="#9fcc41" stroke-width="0"/>
        <path d="m94.7,36.19c-.28.68-.66,1.27-1.15,1.76-.49.49-1.06.87-1.71,1.13-.65.27-1.34.4-2.08.4-.56,0-1.09-.07-1.6-.22-.51-.15-.87-.31-1.08-.48v5.79h-3.33v-15.95h3.01v1.31h.02c.3-.54.73-.95,1.29-1.21.57-.26,1.22-.4,1.97-.4.65,0,1.28.12,1.89.36.61.24,1.15.6,1.62,1.07.47.47.85,1.06,1.14,1.75.29.69.43,1.49.43,2.39s-.14,1.62-.42,2.31Zm-3.74-4.14c-.47-.51-1.08-.77-1.82-.77-.49,0-.92.11-1.26.34-.35.23-.62.48-.8.76v3.31c.17.22.43.43.77.63.34.2.77.3,1.3.3.74,0,1.35-.25,1.82-.76.47-.5.71-1.14.71-1.9s-.24-1.4-.71-1.91Z" fill="#9fcc41" stroke-width="0"/>
        <path d="m103.75,39.64c-.31-.08-.63-.23-.94-.47-.32-.23-.55-.54-.69-.93-.23.44-.59.76-1.06.97-.47.21-1.04.31-1.69.31-.47,0-.91-.08-1.34-.23-.43-.16-.8-.38-1.12-.69-.32-.3-.57-.67-.77-1.11-.19-.44-.29-.92-.29-1.47,0-.98.34-1.77,1.01-2.38.68-.61,1.54-.96,2.6-1.07l2.1-.21v-.35c0-.31-.13-.56-.4-.76-.26-.19-.68-.29-1.26-.29-.51,0-1.03.07-1.56.22-.53.15-.99.35-1.37.59l-.61-2.59c.43-.28.99-.5,1.65-.68.67-.17,1.35-.26,2.05-.26s1.34.08,1.92.24c.58.16,1.09.4,1.52.72.43.32.76.71.99,1.19.23.47.35,1.03.35,1.67v3.45c0,.62.11,1.1.34,1.45.23.34.54.59.94.75l-2.38,1.91Zm-2.19-5.08l-1.28.12c-.45.05-.78.2-.98.47-.2.26-.3.55-.3.86,0,.28.1.52.29.72.19.2.45.3.78.3.4,0,.75-.14,1.05-.43.29-.29.44-.66.44-1.11v-.93Z" fill="#9fcc41" stroke-width="0"/>
        <path d="m114.61,32.02c-.36-.22-.72-.38-1.08-.5-.37-.12-.76-.18-1.18-.18-.37,0-.72.06-1.05.19-.33.12-.61.3-.85.53-.24.23-.43.51-.57.82-.14.32-.21.67-.21,1.06s.07.72.21,1.03c.14.32.33.59.58.82.25.23.54.41.87.55.33.13.7.2,1.08.2.45,0,.85-.04,1.21-.13.36-.09.72-.23,1.1-.43l-.3,2.91c-.73.34-1.59.51-2.59.51-.75,0-1.46-.13-2.15-.38-.68-.26-1.29-.62-1.82-1.1-.53-.47-.95-1.05-1.27-1.73-.32-.68-.48-1.44-.48-2.3s.16-1.62.48-2.31c.32-.68.74-1.27,1.27-1.75.53-.48,1.13-.85,1.81-1.1.68-.25,1.37-.37,2.09-.37s1.34.07,1.91.2c.57.13,1.1.33,1.56.59l-.63,2.84Z" fill="#9fcc41" stroke-width="0"/>
        <path d="m125.61,32.9c-.02.16-.04.29-.07.4l-1.51,1.54h-5.17c.05.22.15.43.3.65.16.21.37.41.64.59s.59.32.96.43c.37.11.77.16,1.22.16.54,0,1.08-.07,1.6-.21.52-.14.96-.33,1.32-.55l-.33,2.94c-.4.22-.89.39-1.47.51-.58.12-1.21.19-1.89.19-.81,0-1.57-.14-2.27-.41-.71-.27-1.32-.65-1.84-1.14-.52-.49-.93-1.08-1.24-1.78-.3-.7-.45-1.48-.45-2.35s.14-1.62.43-2.31c.29-.68.68-1.27,1.18-1.75.5-.48,1.08-.85,1.75-1.12.67-.26,1.38-.4,2.14-.4s1.39.12,1.97.35c.58.23,1.08.54,1.49.93.41.39.73.84.94,1.35.22.51.33,1.04.33,1.59,0,.12,0,.26-.02.42Zm-3.6-1.6c-.29-.32-.66-.48-1.11-.48-.5,0-.94.17-1.32.5-.38.33-.63.74-.73,1.22h3.57s0-.07.01-.11c0-.04.01-.08.01-.13,0-.36-.14-.69-.43-1.01Z" fill="#9fcc41" stroke-width="0"/>
        <path d="m134.09,37.27c-.16.41-.42.78-.76,1.1s-.77.57-1.29.76c-.52.19-1.14.28-1.85.28s-1.36-.07-1.9-.21c-.54-.14-1.02-.32-1.46-.54l-.3-3.03c.47.33.99.6,1.57.82.58.22,1.17.33,1.76.33.31,0,.56-.07.75-.21.19-.14.28-.31.28-.51,0-.22-.08-.38-.25-.5-.17-.12-.41-.22-.73-.31-1.03-.3-1.82-.71-2.39-1.25s-.85-1.27-.85-2.2c0-.51.1-.98.3-1.4.2-.42.48-.78.83-1.07.35-.3.77-.52,1.25-.69.48-.16,1.01-.24,1.59-.24.65,0,1.27.07,1.85.21.58.14,1.01.28,1.27.42l-.58,2.52c-.26-.14-.59-.27-.97-.4-.39-.12-.79-.19-1.2-.19-.29,0-.52.06-.69.17-.18.12-.26.28-.26.5,0,.36.32.61.96.77,1.19.31,2.04.77,2.56,1.36.52.6.78,1.34.78,2.23,0,.45-.08.88-.25,1.29Z" fill="#9fcc41" stroke-width="0"/>
      </g>
    </g>
  </g>
</svg>