<?xml version="1.0" encoding="UTF-8"?>
<svg id="b" data-name="Layer 2" xmlns="http://www.w3.org/2000/svg" viewBox="0 0 135.11 64.5">
  <g id="c" data-name="Layer 1">
    <path d="m31.63,11.01s6.76-14.3-15.02-5.56l1.76,3.15-7.72-.94L13.29.27l1.72,2.85s25.08-10.84,16.62,7.88Z" fill="#fff" stroke-width="0"/>
    <path d="m10.54,9.28s-17,14.65-1.45,15.69c0,0-20.43-.36-.04-18.08l-.65,1.89,2.13.5Z" fill="#9fcc41" stroke-width="0"/>
    <g>
      <path d="m30,34.92c-.42.93-1.01,1.72-1.78,2.37-.77.65-1.69,1.14-2.76,1.47-1.08.34-2.27.5-3.59.5-.67,0-1.41-.07-2.23-.2-.81-.13-1.52-.33-2.12-.59l-.47-4.59c.55.3,1.15.54,1.81.71.66.17,1.33.26,2.03.26.53,0,1.03-.07,1.51-.2.48-.13.9-.33,1.27-.59.37-.26.66-.6.88-1.02.21-.42.32-.9.32-1.45,0-.88-.35-1.62-1.04-2.2-.69-.58-1.53-.88-2.51-.88-.12,0-.22,0-.31.02-.08.01-.21.03-.38.05l-.86-3.83c1-.19,1.85-.53,2.55-1.02.69-.49,1.04-1.07,1.04-1.74,0-.57-.21-1.03-.63-1.38-.42-.35-.96-.52-1.63-.52-.62,0-1.2.08-1.72.25-.53.17-1.04.39-1.54.68l-1-4.41c.62-.33,1.36-.61,2.23-.82.86-.22,1.78-.32,2.76-.32,1.08,0,2.05.13,2.91.4.86.26,1.6.63,2.21,1.11.61.48,1.08,1.06,1.4,1.74.32.68.48,1.43.48,2.24,0,.6-.1,1.14-.29,1.63-.19.49-.44.92-.75,1.29-.31.37-.66.68-1.06.93-.39.25-.78.43-1.17.52.6.14,1.2.38,1.81.72.61.34,1.15.77,1.63,1.31.48.54.87,1.17,1.17,1.9.3.73.45,1.55.45,2.46,0,1.2-.21,2.26-.63,3.19Z" fill="#fff" stroke-width="0"/>
      <path d="m48.86,34.73c-.43.98-1.02,1.81-1.78,2.49-.75.68-1.64,1.21-2.65,1.58-1.02.37-2.1.56-3.25.56s-2.19-.19-3.2-.57c-1-.38-1.88-.94-2.64-1.67-.75-.73-1.34-1.63-1.78-2.71-.43-1.08-.65-2.31-.65-3.7,0-1.53.24-3.05.72-4.56.48-1.51,1.15-2.94,2.01-4.3.86-1.36,1.88-2.63,3.07-3.79,1.18-1.16,2.48-2.16,3.89-3l5.35,1.69c-1.94,1.03-3.61,2.19-5.01,3.48-1.4,1.29-2.51,2.73-3.32,4.3.38-.19.79-.33,1.24-.43.44-.1.94-.14,1.49-.14.86,0,1.72.17,2.57.5.85.33,1.61.82,2.3,1.45.68.63,1.23,1.42,1.65,2.35.42.93.63,2,.63,3.19s-.21,2.29-.64,3.27Zm-5.26-5.41c-.61-.62-1.38-.93-2.31-.93-.67,0-1.32.17-1.94.5-.62.34-1.06.92-1.33,1.76v.75c0,.53.1,1.01.29,1.45.19.44.44.83.75,1.15.31.32.67.58,1.08.75.41.18.82.27,1.26.27.81,0,1.54-.3,2.17-.9.63-.6.95-1.4.95-2.41s-.31-1.78-.91-2.4Z" fill="#fff" stroke-width="0"/>
      <path d="m67.45,32.69c-.43,1.51-1.02,2.76-1.78,3.75-.75.99-1.63,1.73-2.62,2.21-.99.48-2.05.72-3.18.72s-2.19-.24-3.19-.72c-1-.48-1.89-1.21-2.64-2.21-.75-.99-1.34-2.24-1.78-3.75-.43-1.51-.65-3.29-.65-5.35s.22-3.8.65-5.31c.43-1.51,1.02-2.76,1.78-3.75.75-.99,1.63-1.73,2.64-2.21,1-.48,2.07-.72,3.19-.72s2.18.24,3.18.72c.99.48,1.87,1.21,2.62,2.21.75.99,1.35,2.24,1.78,3.75.43,1.51.64,3.28.64,5.31s-.22,3.84-.64,5.35Zm-5.46-10.96c-.6-1.23-1.31-1.85-2.12-1.85s-1.52.62-2.12,1.87c-.6,1.24-.9,3.11-.9,5.6s.3,4.41.9,5.63c.6,1.22,1.3,1.83,2.12,1.83s1.52-.61,2.12-1.83c.6-1.22.9-3.1.9-5.63s-.3-4.38-.9-5.62Z" fill="#fff" stroke-width="0"/>
      <g>
        <path d="m81.11,38.13c-.92.84-2.28,1.26-4.1,1.26-.84,0-1.63-.1-2.38-.31-.75-.21-1.35-.45-1.79-.71l-.35-3.38c.61.42,1.29.76,2.04,1.03.75.26,1.5.4,2.25.4.65,0,1.17-.14,1.54-.41.37-.27.56-.63.56-1.08s-.14-.78-.43-1.05c-.29-.26-.78-.49-1.48-.68-1.46-.4-2.54-1-3.23-1.78-.69-.78-1.04-1.74-1.04-2.88,0-.62.11-1.2.34-1.74.23-.54.55-1.01.98-1.41.43-.4.96-.72,1.58-.96.63-.23,1.35-.35,2.16-.35.85,0,1.61.1,2.27.29.66.19,1.15.38,1.46.55l-.65,2.91c-.31-.17-.73-.34-1.27-.51s-1.05-.26-1.57-.26c-.64,0-1.11.12-1.41.37-.3.25-.44.55-.44.91s.15.67.46.89.75.41,1.32.58c1.44.4,2.55.99,3.36,1.76.8.77,1.21,1.81,1.21,3.14,0,1.45-.46,2.59-1.38,3.43Z" fill="#9fcc41" stroke-width="0"/>
        <path d="m94.7,36.19c-.28.68-.66,1.27-1.15,1.76-.49.49-1.06.87-1.71,1.13-.65.27-1.34.4-2.08.4-.56,0-1.09-.07-1.6-.22-.51-.15-.87-.31-1.08-.48v5.79h-3.33v-15.95h3.01v1.31h.02c.3-.54.73-.95,1.29-1.21.57-.26,1.22-.4,1.97-.4.65,0,1.28.12,1.89.36.61.24,1.15.6,1.62,1.07.47.47.85,1.06,1.14,1.75.29.69.43,1.49.43,2.39s-.14,1.62-.42,2.31Zm-3.74-4.14c-.47-.51-1.08-.77-1.82-.77-.49,0-.92.11-1.26.34-.35.23-.62.48-.8.76v3.31c.17.22.43.43.77.63.34.2.77.3,1.3.3.74,0,1.35-.25,1.82-.76.47-.5.71-1.14.71-1.9s-.24-1.4-.71-1.91Z" fill="#9fcc41" stroke-width="0"/>
        <path d="m103.75,39.64c-.31-.08-.63-.23-.94-.47-.32-.23-.55-.54-.69-.93-.23.44-.59.76-1.06.97-.47.21-1.04.31-1.69.31-.47,0-.91-.08-1.34-.23-.43-.16-.8-.38-1.12-.69-.32-.3-.57-.67-.77-1.11-.19-.44-.29-.92-.29-1.47,0-.98.34-1.77,1.01-2.38.68-.61,1.54-.96,2.6-1.07l2.1-.21v-.35c0-.31-.13-.56-.4-.76-.26-.19-.68-.29-1.26-.29-.51,0-1.03.07-1.56.22-.53.15-.99.35-1.37.59l-.61-2.59c.43-.28.99-.5,1.65-.68.67-.17,1.35-.26,2.05-.26s1.34.08,1.92.24c.58.16,1.09.4,1.52.72.43.32.76.71.99,1.19.23.47.35,1.03.35,1.67v3.45c0,.62.11,1.1.34,1.45.23.34.54.59.94.75l-2.38,1.91Zm-2.19-5.08l-1.28.12c-.45.05-.78.2-.98.47-.2.26-.3.55-.3.86,0,.28.1.52.29.72.19.2.45.3.78.3.4,0,.75-.14,1.05-.43.29-.29.44-.66.44-1.11v-.93Z" fill="#9fcc41" stroke-width="0"/>
        <path d="m114.61,32.02c-.36-.22-.72-.38-1.08-.5-.37-.12-.76-.18-1.18-.18-.37,0-.72.06-1.05.19-.33.12-.61.3-.85.53-.24.23-.43.51-.57.82-.14.32-.21.67-.21,1.06s.07.72.21,1.03c.14.32.33.59.58.82.25.23.54.41.87.55.33.13.7.2,1.08.2.45,0,.85-.04,1.21-.13.36-.09.72-.23,1.1-.43l-.3,2.91c-.73.34-1.59.51-2.59.51-.75,0-1.46-.13-2.15-.38-.68-.26-1.29-.62-1.82-1.1-.53-.47-.95-1.05-1.27-1.73-.32-.68-.48-1.44-.48-2.3s.16-1.62.48-2.31c.32-.68.74-1.27,1.27-1.75.53-.48,1.13-.85,1.81-1.1.68-.25,1.37-.37,2.09-.37s1.34.07,1.91.2c.57.13,1.1.33,1.56.59l-.63,2.84Z" fill="#9fcc41" stroke-width="0"/>
        <path d="m125.61,32.9c-.02.16-.04.29-.07.4l-1.51,1.54h-5.17c.05.22.15.43.3.65.16.21.37.41.64.59s.59.32.96.43c.37.11.77.16,1.22.16.54,0,1.08-.07,1.6-.21.52-.14.96-.33,1.32-.55l-.33,2.94c-.4.22-.89.39-1.47.51-.58.12-1.21.19-1.89.19-.81,0-1.57-.14-2.27-.41-.71-.27-1.32-.65-1.84-1.14-.52-.49-.93-1.08-1.24-1.78-.3-.7-.45-1.48-.45-2.35s.14-1.62.43-2.31c.29-.68.68-1.27,1.18-1.75.5-.48,1.08-.85,1.75-1.12.67-.26,1.38-.4,2.14-.4s1.39.12,1.97.35c.58.23,1.08.54,1.49.93.41.39.73.84.94,1.35.22.51.33,1.04.33,1.59,0,.12,0,.26-.02.42Zm-3.6-1.6c-.29-.32-.66-.48-1.11-.48-.5,0-.94.17-1.32.5-.38.33-.63.74-.73,1.22h3.57s0-.07.01-.11c0-.04.01-.08.01-.13,0-.36-.14-.69-.43-1.01Z" fill="#9fcc41" stroke-width="0"/>
        <path d="m134.09,37.27c-.16.41-.42.78-.76,1.1s-.77.57-1.29.76c-.52.19-1.14.28-1.85.28s-1.36-.07-1.9-.21c-.54-.14-1.02-.32-1.46-.54l-.3-3.03c.47.33.99.6,1.57.82.58.22,1.17.33,1.76.33.31,0,.56-.07.75-.21.19-.14.28-.31.28-.51,0-.22-.08-.38-.25-.5-.17-.12-.41-.22-.73-.31-1.03-.3-1.82-.71-2.39-1.25s-.85-1.27-.85-2.2c0-.51.1-.98.3-1.4.2-.42.48-.78.83-1.07.35-.3.77-.52,1.25-.69.48-.16,1.01-.24,1.59-.24.65,0,1.27.07,1.85.21.58.14,1.01.28,1.27.42l-.58,2.52c-.26-.14-.59-.27-.97-.4-.39-.12-.79-.19-1.2-.19-.29,0-.52.06-.69.17-.18.12-.26.28-.26.5,0,.36.32.61.96.77,1.19.31,2.04.77,2.56,1.36.52.6.78,1.34.78,2.23,0,.45-.08.88-.25,1.29Z" fill="#9fcc41" stroke-width="0"/>
      </g>
    </g>
    <g>
      <path d="m23.94,57.53c.28,0,.51.02.69.06l-.14,1.33c-.2-.05-.4-.07-.61-.07-.55,0-1,.19-1.34.56-.34.37-.51.86-.51,1.45v3.51h-1.38v-6.72h1.08l.18,1.19h.07c.22-.4.5-.72.84-.95.35-.23.72-.35,1.12-.35Z" fill="#fff" stroke-width="0"/>
      <path d="m28.68,64.5c-1.01,0-1.8-.31-2.37-.92s-.86-1.45-.86-2.52.26-1.96.79-2.59c.53-.63,1.26-.94,2.18-.94.86,0,1.54.27,2.04.81s.75,1.28.75,2.23v.77h-4.33c.02.65.19,1.15.51,1.5s.77.53,1.36.53c.38,0,.74-.04,1.07-.11.33-.08.69-.2,1.07-.37v1.16c-.34.17-.68.28-1.02.35-.35.07-.74.1-1.18.1Zm-.25-5.89c-.44,0-.79.14-1.06.43-.26.29-.42.71-.47,1.26h2.95c0-.56-.14-.98-.39-1.26s-.6-.43-1.04-.43Z" fill="#fff" stroke-width="0"/>
      <path d="m35.2,63.34c.34,0,.67-.05,1.01-.16v1.08c-.15.07-.35.13-.59.17-.24.05-.49.07-.75.07-1.31,0-1.96-.71-1.96-2.14v-3.62h-.89v-.63l.95-.52.47-1.42h.85v1.5h1.85v1.08h-1.85v3.6c0,.34.08.6.25.76s.38.25.66.25Z" fill="#fff" stroke-width="0"/>
      <path d="m41.58,64.37l-.28-.94h-.05c-.31.41-.63.69-.95.84-.32.15-.73.22-1.22.22-.64,0-1.14-.18-1.5-.54-.36-.36-.54-.86-.54-1.51,0-.69.25-1.22.75-1.57s1.26-.55,2.28-.58l1.12-.04v-.36c0-.43-.1-.75-.29-.96-.19-.21-.5-.32-.9-.32-.33,0-.65.05-.96.15-.31.1-.6.22-.88.36l-.45-1.02c.35-.19.74-.34,1.16-.43.42-.1.82-.15,1.19-.15.83,0,1.45.19,1.87.56.42.37.63.96.63,1.76v4.53h-.99Zm-2.06-.97c.5,0,.9-.15,1.21-.44.3-.29.46-.7.46-1.22v-.58l-.83.04c-.65.02-1.12.14-1.42.34-.3.2-.44.51-.44.92,0,.3.09.53.26.7.17.16.43.25.78.25Z" fill="#fff" stroke-width="0"/>
      <path d="m44.42,55.87c0-.26.07-.45.2-.59.14-.14.33-.21.58-.21s.43.07.57.21c.13.14.2.33.2.59s-.07.44-.2.57c-.14.14-.32.21-.57.21s-.44-.07-.58-.21c-.13-.14-.2-.33-.2-.57Zm1.46,8.51h-1.38v-6.72h1.38v6.72Z" fill="#fff" stroke-width="0"/>
      <path d="m49.24,64.37h-1.38v-9.46h1.38v9.46Z" fill="#fff" stroke-width="0"/>
      <path d="m56.26,60.53h-2.34v-1.08h2.34v-2.48h1.06v2.48h2.35v1.08h-2.35v2.47h-1.06v-2.47Z" fill="#fff" stroke-width="0"/>
      <path d="m66.97,64.5c-.98,0-1.73-.3-2.24-.89s-.77-1.45-.77-2.56.27-2,.8-2.61c.54-.61,1.31-.91,2.32-.91.69,0,1.3.13,1.85.4l-.42,1.15c-.58-.24-1.07-.35-1.45-.35-1.13,0-1.69.77-1.69,2.32,0,.75.14,1.32.42,1.7s.69.57,1.23.57c.62,0,1.2-.16,1.75-.47v1.25c-.25.15-.51.26-.79.32s-.62.1-1.02.1Z" fill="#fff" stroke-width="0"/>
      <path d="m76.09,61c0,1.1-.27,1.96-.82,2.57-.55.62-1.3.92-2.28.92-.61,0-1.15-.14-1.61-.43-.47-.28-.83-.69-1.08-1.22-.25-.53-.38-1.15-.38-1.85,0-1.09.27-1.94.81-2.55.54-.61,1.3-.92,2.29-.92s1.69.31,2.24.94c.55.63.82,1.47.82,2.53Zm-4.74,0c0,1.55.55,2.33,1.67,2.33s1.65-.78,1.65-2.33-.55-2.3-1.66-2.3c-.58,0-1,.2-1.26.6-.26.4-.39.97-.39,1.71Z" fill="#fff" stroke-width="0"/>
      <path d="m83.16,64.37h-1.39v-4.15c0-.52-.09-.9-.28-1.15s-.48-.38-.88-.38c-.53,0-.92.18-1.17.54-.25.36-.37.96-.37,1.79v3.35h-1.38v-6.72h1.08l.19.88h.07c.18-.32.44-.57.79-.74.34-.17.72-.26,1.13-.26,1,0,1.66.35,1.99,1.06h.09c.19-.33.46-.59.81-.78.35-.19.75-.28,1.2-.28.78,0,1.34.2,1.7.61.35.41.53,1.02.53,1.85v4.38h-1.38v-4.15c0-.52-.09-.9-.29-1.15-.19-.25-.49-.38-.88-.38-.54,0-.93.17-1.18.52s-.37.88-.37,1.6v3.56Z" fill="#fff" stroke-width="0"/>
      <path d="m94.68,64.37h-1.39v-4.15c0-.52-.09-.9-.28-1.15s-.48-.38-.88-.38c-.53,0-.92.18-1.17.54-.25.36-.37.96-.37,1.79v3.35h-1.38v-6.72h1.08l.19.88h.07c.18-.32.44-.57.79-.74.34-.17.72-.26,1.13-.26,1,0,1.66.35,1.99,1.06h.09c.19-.33.46-.59.81-.78.35-.19.75-.28,1.2-.28.78,0,1.34.2,1.7.61.35.41.53,1.02.53,1.85v4.38h-1.38v-4.15c0-.52-.09-.9-.29-1.15-.19-.25-.49-.38-.88-.38-.54,0-.93.17-1.18.52s-.37.88-.37,1.6v3.56Z" fill="#fff" stroke-width="0"/>
      <path d="m103.55,64.5c-1.01,0-1.8-.31-2.37-.92s-.86-1.45-.86-2.52.26-1.96.79-2.59c.53-.63,1.26-.94,2.18-.94.86,0,1.54.27,2.04.81s.75,1.28.75,2.23v.77h-4.33c.02.65.19,1.15.51,1.5s.77.53,1.36.53c.38,0,.74-.04,1.07-.11.33-.08.69-.2,1.07-.37v1.16c-.34.17-.68.28-1.02.35-.35.07-.74.1-1.18.1Zm-.25-5.89c-.44,0-.79.14-1.06.43-.26.29-.42.71-.47,1.26h2.95c0-.56-.14-.98-.39-1.26s-.6-.43-1.04-.43Z" fill="#fff" stroke-width="0"/>
      <path d="m110.95,57.53c.28,0,.51.02.69.06l-.14,1.33c-.2-.05-.4-.07-.61-.07-.55,0-1,.19-1.34.56-.34.37-.51.86-.51,1.45v3.51h-1.38v-6.72h1.08l.18,1.19h.07c.22-.4.5-.72.84-.95.35-.23.72-.35,1.12-.35Z" fill="#fff" stroke-width="0"/>
      <path d="m115.47,64.5c-.98,0-1.73-.3-2.24-.89s-.77-1.45-.77-2.56.27-2,.8-2.61c.54-.61,1.31-.91,2.32-.91.69,0,1.3.13,1.85.4l-.42,1.15c-.58-.24-1.07-.35-1.45-.35-1.13,0-1.69.77-1.69,2.32,0,.75.14,1.32.42,1.7s.69.57,1.23.57c.62,0,1.2-.16,1.75-.47v1.25c-.25.15-.51.26-.79.32s-.62.1-1.02.1Z" fill="#fff" stroke-width="0"/>
      <path d="m118.73,55.87c0-.26.07-.45.2-.59.14-.14.33-.21.58-.21s.43.07.57.21c.13.14.2.33.2.59s-.07.44-.2.57c-.14.14-.32.21-.57.21s-.44-.07-.58-.21c-.13-.14-.2-.33-.2-.57Zm1.46,8.51h-1.38v-6.72h1.38v6.72Z" fill="#fff" stroke-width="0"/>
      <path d="m126.24,64.37l-.28-.94h-.05c-.31.41-.63.69-.95.84-.32.15-.73.22-1.22.22-.64,0-1.14-.18-1.5-.54-.36-.36-.54-.86-.54-1.51,0-.69.25-1.22.75-1.57s1.26-.55,2.28-.58l1.12-.04v-.36c0-.43-.1-.75-.29-.96-.19-.21-.5-.32-.9-.32-.33,0-.65.05-.96.15-.31.1-.6.22-.88.36l-.45-1.02c.35-.19.74-.34,1.16-.43.42-.1.82-.15,1.19-.15.83,0,1.45.19,1.87.56.42.37.63.96.63,1.76v4.53h-.99Zm-2.06-.97c.5,0,.9-.15,1.21-.44.3-.29.46-.7.46-1.22v-.58l-.83.04c-.65.02-1.12.14-1.42.34-.3.2-.44.51-.44.92,0,.3.09.53.26.7.17.16.43.25.78.25Z" fill="#fff" stroke-width="0"/>
      <path d="m130.54,64.37h-1.38v-9.46h1.38v9.46Z" fill="#fff" stroke-width="0"/>
    </g>
    <line x1="16.08" y1="50" x2="135.11" y2="50" fill="#231f20" stroke="#fff" stroke-miterlimit="10" stroke-width=".51"/>
  </g>
</svg>